<?xml version="1.0" encoding="UTF-8" standalone="no"?>
<svg width="40px" height="41px" viewBox="0 0 40 41" version="1.1" xmlns="http://www.w3.org/2000/svg" xmlns:xlink="http://www.w3.org/1999/xlink" xmlns:sketch="http://www.bohemiancoding.com/sketch/ns">
    <!-- Generator: Sketch 3.3.2 (12043) - http://www.bohemiancoding.com/sketch -->
    <title>Dropdown_Mouseover</title>
    <desc>Created with Sketch.</desc>
    <defs></defs>
    <g id="Page-1" stroke="none" stroke-width="1" fill="none" fill-rule="evenodd" sketch:type="MSPage">
        <g id="Startscreen-2-Copy-16" sketch:type="MSArtboardGroup" transform="translate(-396.000000, -308.000000)">
            <g id="Dropdown_Mouseover" sketch:type="MSLayerGroup" transform="translate(416.000000, 328.500000) rotate(-270.000000) translate(-416.000000, -328.500000) translate(396.000000, 308.500000)">
                <circle id="Oval-692-Copy-7" fill="#ABE4EC" sketch:type="MSShapeGroup" cx="20" cy="20" r="20"></circle>
                <g id="Fill-1-+-Fill-2" transform="translate(13.170732, 8.292683)" fill="#FFFFFF" sketch:type="MSShapeGroup">
                    <path d="M13.0004878,12.297561 C12.8839024,12.297561 12.7668293,12.2560976 12.6736585,12.1712195 L0.257560976,0.928780488 C0.0575609756,0.747804878 0.0424390244,0.439512195 0.223414634,0.24 C0.403902439,0.0395121951 0.712682927,0.0243902439 0.912195122,0.205853659 L13.3278049,11.4482927 C13.5278049,11.6292683 13.5434146,11.937561 13.362439,12.1370732 C13.2658537,12.2439024 13.1336585,12.297561 13.0004878,12.297561" id="Fill-1"></path>
                    <path d="M0.584878049,23.5360976 C0.452195122,23.5360976 0.319512195,23.4819512 0.223414634,23.3756098 C0.0424390244,23.1760976 0.0580487805,22.8673171 0.257560976,22.6868293 L12.6736585,11.4482927 C12.8731707,11.2668293 13.1819512,11.2829268 13.362439,11.482439 C13.5434146,11.6819512 13.5273171,11.9907317 13.3278049,12.1712195 L0.912195122,23.4097561 C0.81902439,23.4946341 0.701463415,23.5360976 0.584878049,23.5360976" id="Fill-2"></path>
                </g>
            </g>
        </g>
    </g>
</svg>