<?xml version="1.0" encoding="UTF-8" standalone="no"?>
<svg width="40px" height="40px" viewBox="0 0 40 40" version="1.1" xmlns="http://www.w3.org/2000/svg" xmlns:xlink="http://www.w3.org/1999/xlink" xmlns:sketch="http://www.bohemiancoding.com/sketch/ns">
    <!-- Generator: Sketch 3.3.2 (12043) - http://www.bohemiancoding.com/sketch -->
    <title>Icon_Graph_Mouseover</title>
    <desc>Created with Sketch.</desc>
    <defs></defs>
    <g id="Page-1" stroke="none" stroke-width="1" fill="none" fill-rule="evenodd" sketch:type="MSPage">
        <g id="Startscreen-2-Copy-16" sketch:type="MSArtboardGroup" transform="translate(-344.000000, -308.000000)">
            <g id="Icon_Graph_Mouseover" sketch:type="MSLayerGroup" transform="translate(344.000000, 308.500000)">
                <circle id="Oval-692-Copy-6" fill="#ABE4EC" sketch:type="MSShapeGroup" cx="20" cy="19.7590361" r="19.7590361"></circle>
                <path d="M18.8095113,20 C18.7256728,20 18.6418343,19.9586251 18.581113,19.8773662 C18.4667598,19.7249126 18.4766231,19.4889636 18.6026891,19.3510472 L26.4480613,10.7633249 C26.5741273,10.624663 26.7692367,10.6369636 26.8832818,10.7894172 C26.997635,10.9418708 26.9874634,11.1778198 26.8613974,11.3157363 L19.0163335,19.9034585 C18.9574616,19.9683165 18.8831782,20 18.8095113,20" id="Fill-2-Copy" fill="#FFFFFF" sketch:type="MSShapeGroup"></path>
                <path d="M10.3479728,20 C10.2641343,20 10.1802958,19.9722652 10.1195746,19.9177952 C10.0052213,19.8156013 10.0150847,19.6574383 10.1411507,19.5649891 L17.9865229,13.8084028 C18.1125888,13.7154539 18.3076983,13.7236994 18.4217433,13.8258932 C18.5360965,13.928087 18.5259249,14.0862501 18.399859,14.1786993 L10.554795,19.9352856 C10.4959231,19.9787617 10.4216397,20 10.3479728,20" id="Fill-2-Copy-2" fill="#FFFFFF" sketch:type="MSShapeGroup" transform="translate(14.270589, 16.871826) scale(-1, 1) translate(-14.270589, -16.871826) "></path>
                <path d="M18.7534836,29.3332715 C18.6848884,29.3332715 18.6162933,29.2918966 18.5666123,29.2106377 C18.4730505,29.0581841 18.4811205,28.8222352 18.5842654,28.6843187 L25.0032063,20.0965965 C25.1063512,19.9579345 25.2659862,19.9702352 25.3592957,20.1226888 C25.4528575,20.2751424 25.4445353,20.5110913 25.3413904,20.6490078 L18.9227017,29.23673 C18.8745338,29.301588 18.8137565,29.3332715 18.7534836,29.3332715" id="Fill-2-Copy-3" fill="#FFFFFF" sketch:type="MSShapeGroup" transform="translate(21.962897, 24.666636) scale(1, -1) translate(-21.962897, -24.666636) "></path>
                <rect id="Rectangle-965-Copy-4" fill="#FFFFFF" sketch:type="MSShapeGroup" x="5.49980746" y="12.3434871" width="5.79189116" height="4.56627914"></rect>
                <rect id="Rectangle-965-Copy-6" fill="#FFFFFF" sketch:type="MSShapeGroup" x="21.6982238" y="27.6790946" width="5.79189116" height="4.56627914"></rect>
                <rect id="Rectangle-965-Copy-7" fill="#FFFFFF" sketch:type="MSShapeGroup" x="25.5466415" y="9.86406977" width="5.79189116" height="4.56627914"></rect>
                <rect id="Rectangle-965-Copy-8" fill="#FFFFFF" sketch:type="MSShapeGroup" x="16.1626791" y="16.9097662" width="5.79189116" height="4.56627914"></rect>
            </g>
        </g>
    </g>
</svg>