<?xml version="1.0" encoding="UTF-8" standalone="no"?>
<svg width="25px" height="25px" viewBox="0 0 25 25" version="1.1" xmlns="http://www.w3.org/2000/svg" xmlns:xlink="http://www.w3.org/1999/xlink" xmlns:sketch="http://www.bohemiancoding.com/sketch/ns">
    <!-- Generator: Sketch 3.3.2 (12043) - http://www.bohemiancoding.com/sketch -->
    <title>Graph_Erdzeitalter</title>
    <desc>Created with Sketch.</desc>
    <defs></defs>
    <g id="Page-1" stroke="none" stroke-width="1" fill="none" fill-rule="evenodd" sketch:type="MSPage">
        <g id="Startscreen-2-Copy-16" sketch:type="MSArtboardGroup" transform="translate(-546.000000, -233.000000)" fill="#D8D8D8">
            <g id="Graph_Erdzeitalter" sketch:type="MSLayerGroup" transform="translate(546.390845, 232.890845)">
                <path d="M12.1289302,24.4761364 C5.65172093,24.4761364 0.382883721,19.1125 0.382883721,12.51875 C0.382883721,5.92556818 5.65172093,0.561363636 12.1289302,0.561363636 C18.6061395,0.561363636 23.8749767,5.92556818 23.8749767,12.51875 C23.8749767,19.1125 18.6061395,24.4761364 12.1289302,24.4761364 L12.1289302,24.4761364 Z M12.1289302,1.42897727 C6.12223256,1.42897727 1.23516279,6.40397727 1.23516279,12.51875 C1.23516279,18.6340909 6.12223256,23.6090909 12.1289302,23.6090909 C18.136186,23.6090909 23.0232558,18.6340909 23.0232558,12.51875 C23.0232558,6.40397727 18.136186,1.42897727 12.1289302,1.42897727 L12.1289302,1.42897727 Z" id="Fill-1" sketch:type="MSShapeGroup"></path>
                <path d="M12.688186,13.6017045 L5.29562791,13.6017045 L5.29562791,12.7340909 L11.8364651,12.7340909 L11.8364651,4.23011364 L12.688186,4.23011364 L12.688186,13.6017045" id="Fill-2" sketch:type="MSShapeGroup"></path>
            </g>
        </g>
    </g>
</svg>