<?xml version="1.0" encoding="utf-8"?>
<!-- Generator: Adobe Illustrator 15.0.0, SVG Export Plug-In . SVG Version: 6.00 Build 0)  -->
<!DOCTYPE svg PUBLIC "-//W3C//DTD SVG 1.1//EN" "http://www.w3.org/Graphics/SVG/1.1/DTD/svg11.dtd">
<svg version="1.1" id="Ebene_1" xmlns:sketch="http://www.bohemiancoding.com/sketch/ns"
	 xmlns="http://www.w3.org/2000/svg" xmlns:xlink="http://www.w3.org/1999/xlink" x="0px" y="0px" width="198px" height="222px"
	 viewBox="0 0 198 222" enable-background="new 0 0 198 222" xml:space="preserve">
<title>Rectangle 923 Copy 10 + Path 891 Copy + Group Copy 24 Copy Copy Copy Copy Copy Copy Copy Copy Copy Copy Copy</title>
<desc>Created with Sketch.</desc>
<g id="Page-1" sketch:type="MSPage">
	<g id="Logos" transform="translate(-685.000000, -584.000000)" sketch:type="MSArtboardGroup">
		<g id="Logo-Klein-Copy" transform="translate(45.000000, 471.000000)" sketch:type="MSLayerGroup">

				<g id="Rectangle-923-Copy-10-_x2B_-Path-891-Copy-_x2B_-Group-Copy-24-Copy-Copy-Copy-Copy-Copy-Copy-Copy-Copy-Copy-Copy-Copy" transform="translate(640.168285, 113.350810)" sketch:type="MSShapeGroup">
				<g id="Group-Copy-25" transform="translate(0.035585, 0.214187)">
					<rect id="Rectangle-923-Copy-16" x="0.353" y="23.09" fill="#14A3FF" width="197.084" height="198.013"/>
					<path id="Path-891-Copy-2" fill-opacity="0.06" d="M28.321,148.57L0.373,117.902c0,0,0-117.221,0-117.45
						s93.856-0.229,93.856-0.229l75.292,95.02L28.321,148.57z"/>
					<path id="Path-891-Copy" fill="none" d="M28.321,148.57L0.373,117.902c0,0,0-117.221,0-117.45s93.856-0.229,93.856-0.229
						l75.292,95.02L28.321,148.57z"/>
					<path id="Path-799-Copy-3" fill="#F3F3F3" d="M56.267,70.262l-35.39,28.146l6.899,49.419l54.985,40.577l77.312-35.59
						l19.885-24.38l-10.223-33.218l-51.138-26.75L56.267,70.262z"/>
					<path id="Path-799-Copy-4" opacity="0.7394" fill="#4A4A4A" enable-background="new    " d="M82.761,188.405l77.312-35.59
						l19.885-24.38l-10.223-33.218L82.761,188.405z"/>
					<path id="Path-799-Copy-5" fill="#4A4A4A" d="M82.761,188.405v-23.587l20.01-62.528l66.749-6.519L82.761,188.405z"/>
					<path id="Path-799-Copy-6" opacity="0.4901" fill="#666566" enable-background="new    " d="M82.761,188.405v-24.448
						L36.93,147.802h-9.129L82.761,188.405z"/>
				</g>
			</g>
		</g>
	</g>
</g>
</svg>
