<?xml version="1.0" encoding="UTF-8" standalone="no"?>
<svg width="198px" height="222px" viewBox="0 0 198 222" version="1.1" xmlns="http://www.w3.org/2000/svg" xmlns:xlink="http://www.w3.org/1999/xlink" xmlns:sketch="http://www.bohemiancoding.com/sketch/ns">
    <!-- Generator: Sketch 3.3.2 (12043) - http://www.bohemiancoding.com/sketch -->
    <title>Rectangle 923 Copy 10 + Path 891 Copy + Group Copy 24 Copy Copy Copy Copy Copy Copy Copy Copy Copy Copy Copy</title>
    <desc>Created with Sketch.</desc>
    <defs></defs>
    <g id="Page-1" stroke="none" stroke-width="1" fill="none" fill-rule="evenodd" sketch:type="MSPage">
        <g id="Logos" sketch:type="MSArtboardGroup" transform="translate(-685.000000, -584.000000)">
            <g id="Logo-Klein-Copy" sketch:type="MSLayerGroup" transform="translate(45.000000, 471.000000)">
                <g id="Rectangle-923-Copy-10-+-Path-891-Copy-+-Group-Copy-24-Copy-Copy-Copy-Copy-Copy-Copy-Copy-Copy-Copy-Copy-Copy" transform="translate(640.168285, 113.350810)" sketch:type="MSShapeGroup">
                    <g id="Group-Copy-25" transform="translate(0.035585, 0.214187)">
                        <path d="M28.3205407,148.569668 L0.373198992,117.901674 C0.373198992,117.901674 0.373198812,0.680871198 0.373198992,0.451480808 C0.373199172,0.222090418 94.2293365,0.222090426 94.2293365,0.222090426 L169.520117,95.242179 L28.3205407,148.569668 Z" id="Path-891-Copy-2" fill-opacity="0.0599999987" fill="#F3F3F3"></path>
                        <rect id="Rectangle-923-Copy-16" fill="#14A3FF" x="0.353304224" y="23.0900811" width="197.084507" height="198.01255"></rect>
                        <path d="M28.3205037,148.569668 L0.37316198,117.901674 C0.37316198,117.901674 0.3731618,0.680871198 0.37316198,0.451480808 C0.373162159,0.222090418 94.2292995,0.222090426 94.2292995,0.222090426 L169.52008,95.242179 L28.3205037,148.569668 Z" id="Path-891-Copy" fill-opacity="0.0599999987"></path>
                        <path d="M56.2668768,70.2621928 L20.8773747,98.4082329 L27.7765754,147.827755 L82.7615196,188.404605 L160.073215,152.81515 L179.957577,128.435691 L169.73585,95.2168241 L118.597771,68.4667808 L56.2668768,70.2621928 Z" id="Path-799-Copy-3" fill="#F3F3F3"></path>
                        <path d="M82.7615196,188.404605 L160.073215,152.81515 L179.957577,128.435691 L169.73585,95.2168241 L82.7615196,188.404605 Z" id="Path-799-Copy-4" opacity="0.739447295" fill="#4A4A4A"></path>
                        <path d="M82.7615196,188.404605 L82.7615196,164.817681 L102.771909,102.289604 L169.520117,95.7704736 L82.7615196,188.404605 Z" id="Path-799-Copy-5" fill="#4A4A4A"></path>
                        <path d="M82.7615196,188.404605 L82.7615182,163.957182 L36.9296962,147.802766 L27.8011031,147.802766 L82.7615196,188.404605 Z" id="Path-799-Copy-6" opacity="0.490146922" fill="#666566"></path>
                    </g>
                </g>
            </g>
        </g>
    </g>
</svg>
