<?xml version="1.0" encoding="UTF-8" standalone="no"?>
<svg width="40px" height="40px" viewBox="0 0 40 40" version="1.1" xmlns="http://www.w3.org/2000/svg" xmlns:xlink="http://www.w3.org/1999/xlink" xmlns:sketch="http://www.bohemiancoding.com/sketch/ns">
    <!-- Generator: Sketch 3.3.2 (12043) - http://www.bohemiancoding.com/sketch -->
    <title>Icon_Lupe_aus_ini</title>
    <desc>Created with Sketch.</desc>
    <defs></defs>
    <g id="Page-1" stroke="none" stroke-width="1" fill="none" fill-rule="evenodd" sketch:type="MSPage">
        <g id="Startscreen-2-Copy-16" sketch:type="MSArtboardGroup" transform="translate(-80.000000, -226.000000)">
            <g id="Icon_Lupe_aus_ini" sketch:type="MSLayerGroup" transform="translate(80.000000, 226.000000)">
                <circle id="Oval-692-Copy-3" fill="#4A4A4A" sketch:type="MSShapeGroup" cx="20" cy="20" r="20"></circle>
                <path d="M19.0278049,29.1297561 C13.5170732,29.1297561 9.03365854,24.6463415 9.03365854,19.1365854 C9.03365854,13.6258537 13.5170732,9.14243902 19.0278049,9.14243902 C24.5380488,9.14243902 29.0209756,13.6258537 29.0209756,19.1365854 C29.0209756,24.6463415 24.5380488,29.1297561 19.0278049,29.1297561 L19.0278049,29.1297561 Z M19.0278049,10.1180488 C14.0546341,10.1180488 10.0097561,14.1634146 10.0097561,19.1365854 C10.0097561,24.1087805 14.0546341,28.1541463 19.0278049,28.1541463 C24,28.1541463 28.0453659,24.1087805 28.0453659,19.1365854 C28.0453659,14.1634146 24,10.1180488 19.0278049,10.1180488 L19.0278049,10.1180488 Z" id="Fill-7" fill="#FFFFFF" sketch:type="MSShapeGroup"></path>
                <path d="M30.5570732,31.575122 L26.0209756,26.9897561 L26.7146341,26.3039024 L31.2502439,30.8887805 L30.5570732,31.575122" id="Fill-8" fill="#FFFFFF" sketch:type="MSShapeGroup"></path>
                <path d="M31.5098944,8.97477353 L9.24791536,31.2367528" id="Line" stroke="#FFFFFF" stroke-width="3" stroke-linecap="square" sketch:type="MSShapeGroup"></path>
            </g>
        </g>
    </g>
</svg>