<?xml version="1.0" encoding="UTF-8" standalone="no"?>
<svg width="61px" height="61px" viewBox="0 0 61 61" version="1.1" xmlns="http://www.w3.org/2000/svg" xmlns:xlink="http://www.w3.org/1999/xlink" xmlns:sketch="http://www.bohemiancoding.com/sketch/ns">
    <!-- Generator: Sketch 3.3.2 (12043) - http://www.bohemiancoding.com/sketch -->
    <title>Icon_Gestein_Herkunft_Pressed</title>
    <desc>Created with Sketch.</desc>
    <defs></defs>
    <g id="Page-1" stroke="none" stroke-width="1" fill="none" fill-rule="evenodd" sketch:type="MSPage">
        <g id="Startscreen-2-Copy-16" sketch:type="MSArtboardGroup" transform="translate(-297.000000, -506.000000)">
            <g id="Icon_Gestein_Herkunft_Pressed" sketch:type="MSLayerGroup" transform="translate(284.500000, 493.500000)">
                <path d="M43,73 C59.5685425,73 73,59.5685425 73,43 C73,26.4314575 59.5685425,13 43,13 C26.4314575,13 13,26.4314575 13,43 C13,59.5685425 26.4314575,73 43,73 Z" id="Oval-692-Copy-3" fill="#526F73" sketch:type="MSShapeGroup" transform="translate(43.000000, 43.000000) rotate(-315.000000) translate(-43.000000, -43.000000) "></path>
                <path d="M27.8503692,38.6821276 L29.8669806,40.8312304 L34.0486447,30.9649878 L39.3592301,29.2247673 L44.8664828,21.0384565 L55.4043648,31.9253 L63.8478896,55.4277075 L22.1521104,55.4277066 L27.8503692,38.6821276 Z" id="Path-975-Copy" fill="#757575" sketch:type="MSShapeGroup"></path>
                <path d="M31.0945847,37.9340218 L34.0383131,30.9166967 L39.3090909,29.223672 L44.9051476,21 L55.43927,31.8990044 L49.3104169,35.068296 L39.8262886,32.4421686 L31.0945847,37.9340218 Z" id="Path-975-Copy-3" fill="#F3F3F3" sketch:type="MSShapeGroup"></path>
            </g>
        </g>
    </g>
</svg>