<?xml version="1.0" encoding="UTF-8" standalone="no"?>
<svg width="61px" height="73px" viewBox="0 0 61 73" version="1.1" xmlns="http://www.w3.org/2000/svg" xmlns:xlink="http://www.w3.org/1999/xlink" xmlns:sketch="http://www.bohemiancoding.com/sketch/ns">
    <!-- Generator: Sketch 3.3.2 (12043) - http://www.bohemiancoding.com/sketch -->
    <title>Icon_Gestein Fundort_ini</title>
    <desc>Created with Sketch.</desc>
    <defs></defs>
    <g id="Page-1" stroke="none" stroke-width="1" fill="none" fill-rule="evenodd" sketch:type="MSPage">
        <g id="Startscreen-2-Copy-16" sketch:type="MSArtboardGroup" transform="translate(-145.000000, -506.000000)">
            <g id="Icon_Gestein-Fundort_ini" sketch:type="MSLayerGroup" transform="translate(132.500000, 493.500000)">
                <path d="M43,73 C50.6776695,73 58.3553391,70.0710678 64.2132034,64.2132034 C75.9289322,52.4974747 75.9289322,33.5025253 64.2132034,21.7867966 C52.4974747,10.0710678 33.5025253,10.0710678 21.7867966,21.7867966 C15.9289322,27.6446609 13,35.3223305 13,43 L13,73 L43,73 Z" id="Oval-692-Copy-8" fill="#ABE3EC" sketch:type="MSShapeGroup" transform="translate(43.000000, 43.000000) rotate(-45.000000) translate(-43.000000, -43.000000) "></path>
                <path d="M32.2673903,28.966541 L22.6604505,36.5326945 L24.5333281,49.8175364 L39.4597051,60.7253114 L60.4469685,51.1582363 L65.8448369,44.6046064 L63.0700162,35.6747874 L49.1879208,28.4839025 L32.2673903,28.966541 Z" id="Path-799-Copy-3" fill="#F3F3F3" sketch:type="MSShapeGroup"></path>
                <path d="M39.4597051,60.7253114 L60.4469685,51.1582363 L65.8448369,44.6046064 L63.0700162,35.6747874 L39.4597051,60.7253114 Z" id="Path-799-Copy-4" opacity="0.739447295" fill="#4A4A4A" sketch:type="MSShapeGroup"></path>
                <path d="M39.4597051,60.7253114 L39.4597051,54.3847289 L44.891785,37.5760756 L63.0114527,35.8236182 L39.4597051,60.7253114 Z" id="Path-799-Copy-5" opacity="0.284981343" fill="#4A4A4A" sketch:type="MSShapeGroup"></path>
                <path d="M39.4597051,60.7253114 L39.4597047,54.1534117 L27.0180616,49.8108189 L24.5399865,49.8108189 L39.4597051,60.7253114 Z" id="Path-799-Copy-6" opacity="0.490146922" fill="#666566" sketch:type="MSShapeGroup"></path>
            </g>
        </g>
    </g>
</svg>