<?xml version="1.0" encoding="UTF-8" standalone="no"?>
<svg width="59px" height="60px" viewBox="0 0 59 60" version="1.1" xmlns="http://www.w3.org/2000/svg" xmlns:xlink="http://www.w3.org/1999/xlink" xmlns:sketch="http://www.bohemiancoding.com/sketch/ns">
    <!-- Generator: Sketch 3.3.2 (12043) - http://www.bohemiancoding.com/sketch -->
    <title>Steckbrief_Erdzeitalter</title>
    <desc>Created with Sketch.</desc>
    <defs></defs>
    <g id="Page-1" stroke="none" stroke-width="1" fill="none" fill-rule="evenodd" sketch:type="MSPage">
        <g id="Startscreen-2-Copy-15" sketch:type="MSArtboardGroup" transform="translate(-946.000000, -1222.000000)" fill="#D2D0D0">
            <g id="Steckbrief_Erdzeitalter" sketch:type="MSLayerGroup" transform="translate(945.525883, 1222.000000)">
                <path d="M30,0.557575758 C13.7654545,0.557575758 0.557575758,13.7654545 0.557575758,30 C0.557575758,46.2345455 13.7654545,59.4424242 30,59.4424242 C46.2345455,59.4424242 59.4424242,46.2345455 59.4424242,30 C59.4424242,13.7654545 46.2345455,0.557575758 30,0.557575758 L30,0.557575758 Z M30,53.1775758 C17.22,53.1775758 6.82181818,42.7806061 6.82181818,30 C6.82181818,17.2193939 17.22,6.82242424 30,6.82242424 C42.78,6.82242424 53.1781818,17.2193939 53.1781818,30 C53.1781818,42.7806061 42.78,53.1775758 30,53.1775758 L30,53.1775758 Z" id="Fill-1" sketch:type="MSShapeGroup"></path>
                <path d="M45.3442424,29.0909091 L32.1127273,29.0909091 L32.1127273,13.1818182 C32.1127273,11.8430303 31.0272727,10.7575758 29.6884848,10.7575758 C28.349697,10.7575758 27.2642424,11.8430303 27.2642424,13.1818182 L27.2642424,31.5151515 C27.2642424,32.8539394 28.349697,33.9393939 29.6884848,33.9393939 L45.3442424,33.9393939 C46.6830303,33.9393939 47.7684848,32.8539394 47.7684848,31.5151515 C47.7684848,30.1763636 46.6830303,29.0909091 45.3442424,29.0909091" id="Fill-2" sketch:type="MSShapeGroup"></path>
            </g>
        </g>
    </g>
</svg>