<?xml version="1.0" encoding="UTF-8" standalone="no"?>
<svg width="61px" height="61px" viewBox="0 0 61 61" version="1.1" xmlns="http://www.w3.org/2000/svg" xmlns:xlink="http://www.w3.org/1999/xlink" xmlns:sketch="http://www.bohemiancoding.com/sketch/ns">
    <!-- Generator: Sketch 3.3.2 (12043) - http://www.bohemiancoding.com/sketch -->
    <title>Tab_Gallerie_nicht ausgewählt </title>
    <desc>Created with Sketch.</desc>
    <defs></defs>
    <g id="Page-1" stroke="none" stroke-width="1" fill="none" fill-rule="evenodd" sketch:type="MSPage">
        <g id="Startscreen-2-Copy-16" sketch:type="MSArtboardGroup" transform="translate(-421.000000, -653.000000)">
            <g id="Icon_Gallerie" sketch:type="MSLayerGroup" transform="translate(62.500000, 640.500000)">
                <g id="Tab_Gallerie_nicht-ausgewählt-" transform="translate(346.702290, 0.500000)" sketch:type="MSShapeGroup">
                    <path d="M21.2867966,63.7132034 C33.0025253,75.4289322 51.9974747,75.4289322 63.7132034,63.7132034 C75.4289322,51.9974747 75.4289322,33.0025253 63.7132034,21.2867966 C51.9974747,9.57106781 33.0025253,9.57106781 21.2867966,21.2867966 C9.57106781,33.0025253 9.57106781,51.9974747 21.2867966,63.7132034 Z" id="Oval-692-Copy-11" fill="#D8D8D8" transform="translate(42.500000, 42.500000) rotate(-45.000000) translate(-42.500000, -42.500000) "></path>
                    <rect id="Rectangle-988" fill="#96D0D8" x="26" y="26" width="9.16666667" height="6.6"></rect>
                    <rect id="Rectangle-988-Copy-3" fill="#96D0D8" x="26" y="34.8" width="9.16666667" height="6.6"></rect>
                    <rect id="Rectangle-988-Copy-6" fill="#96D0D8" x="26" y="43.6" width="9.16666667" height="6.6"></rect>
                    <rect id="Rectangle-988-Copy-9" fill="#96D0D8" x="26" y="52.4" width="9.16666667" height="6.6"></rect>
                    <rect id="Rectangle-988-Copy" fill="#96D0D8" x="37.9166667" y="26" width="9.16666667" height="6.6"></rect>
                    <rect id="Rectangle-988-Copy-4" fill="#96D0D8" x="37.9166667" y="34.8" width="9.16666667" height="6.6"></rect>
                    <rect id="Rectangle-988-Copy-7" fill="#96D0D8" x="37.9166667" y="43.6" width="9.16666667" height="6.6"></rect>
                    <rect id="Rectangle-988-Copy-10" fill="#96D0D8" x="37.9166667" y="52.4" width="9.16666667" height="6.6"></rect>
                    <rect id="Rectangle-988-Copy-2" fill="#96D0D8" x="49.8333333" y="26" width="9.16666667" height="6.6"></rect>
                    <rect id="Rectangle-988-Copy-5" fill="#96D0D8" x="49.8333333" y="34.8" width="9.16666667" height="6.6"></rect>
                    <rect id="Rectangle-988-Copy-8" fill="#96D0D8" x="49.8333333" y="43.6" width="9.16666667" height="6.6"></rect>
                    <rect id="Rectangle-988-Copy-11" fill="#96D0D8" x="49.8333333" y="52.4" width="9.16666667" height="6.6"></rect>
                </g>
            </g>
        </g>
    </g>
</svg>