<?xml version="1.0" encoding="UTF-8" standalone="no"?>
<svg width="61px" height="61px" viewBox="0 0 61 61" version="1.1" xmlns="http://www.w3.org/2000/svg" xmlns:xlink="http://www.w3.org/1999/xlink" xmlns:sketch="http://www.bohemiancoding.com/sketch/ns">
    <!-- Generator: Sketch 3.3.2 (12043) - http://www.bohemiancoding.com/sketch -->
    <title>Tab_Karte_Mouseover</title>
    <desc>Created with Sketch.</desc>
    <defs></defs>
    <g id="Page-1" stroke="none" stroke-width="1" fill="none" fill-rule="evenodd" sketch:type="MSPage">
        <g id="Startscreen-2-Copy-16" sketch:type="MSArtboardGroup" transform="translate(-250.000000, -653.000000)">
            <g id="Icon_Gallerie" sketch:type="MSLayerGroup" transform="translate(62.500000, 640.500000)">
                <g id="Tab_Karte_Mouseover" transform="translate(175.000000, 0.000000)" sketch:type="MSShapeGroup">
                    <path d="M21.7867966,64.2132034 C33.5025253,75.9289322 52.4974747,75.9289322 64.2132034,64.2132034 C75.9289322,52.4974747 75.9289322,33.5025253 64.2132034,21.7867966 C52.4974747,10.0710678 33.5025253,10.0710678 21.7867966,21.7867966 C10.0710678,33.5025253 10.0710678,52.4974747 21.7867966,64.2132034 Z" id="Oval-692-Copy-13" fill="#ABE4EC" transform="translate(43.000000, 43.000000) rotate(-45.000000) translate(-43.000000, -43.000000) "></path>
                    <g id="Icon_Gestein-Fundort-Copy-4" transform="translate(28.000000, 25.000000)" fill="#F3F3F3">
                        <path d="M25.4359077,25.5542142 C28.0439403,22.9340511 29.6570421,19.3143296 29.6570421,15.3160955 C29.6570421,7.31962748 23.2046351,0.837209302 15.2451877,0.837209302 C7.28574032,0.837209302 0.833333333,7.31962748 0.833333333,15.3160955 C0.833333333,19.302247 2.43670027,22.9121702 5.03085071,25.5304325 L5.05446782,25.5542143 C5.07033405,25.5701543 5.08623049,25.5860507 5.10216358,25.60191 L15.268887,35.7686335 L25.459607,25.5779135 L25.4359077,25.5542142 Z" id="Oval-692-Copy-8"></path>
                    </g>
                </g>
            </g>
        </g>
    </g>
</svg>