<?xml version="1.0" encoding="UTF-8" standalone="no"?>
<svg width="90px" height="44px" viewBox="0 0 90 44" version="1.1" xmlns="http://www.w3.org/2000/svg" xmlns:xlink="http://www.w3.org/1999/xlink" xmlns:sketch="http://www.bohemiancoding.com/sketch/ns">
    <!-- Generator: Sketch 3.3.2 (12043) - http://www.bohemiancoding.com/sketch -->
    <title>Bird 2</title>
    <desc>Created with Sketch.</desc>
    <defs></defs>
    <g id="Page-1" stroke="none" stroke-width="1" fill="none" fill-rule="evenodd" sketch:type="MSPage">
        <g id="Startscreen-2-Copy-16" sketch:type="MSArtboardGroup" transform="translate(-992.000000, -972.000000)" fill="#4A4A4A">
            <g id="Bird-2" sketch:type="MSLayerGroup" transform="translate(992.000000, 972.000000)">
                <path d="M88.3598139,4.03634959 C83.7743322,4.87426999 79.4228036,6.36363584 75.2584376,8.45790447 C70.9536996,10.6455627 66.9764961,13.3450383 63.1864551,16.2770752 C61.7359455,17.3942517 60.3322267,18.5112761 58.8349265,19.6746911 C58.7881359,19.7213858 58.7413452,19.7213858 58.7413452,19.7213858 C58.6945546,19.6746911 58.6945546,19.6746911 58.6479169,19.6283005 C58.6009734,19.5817578 58.507545,19.535063 58.4606015,19.4886724 C57.5249418,18.6042093 56.5421856,17.6735078 55.5595824,16.7426541 C55.5129447,16.6959593 55.4192105,16.6959593 55.4192105,16.7426541 C55.2788386,16.9752154 55.2788386,17.2546236 55.3725728,17.4873371 C55.6533166,18.2785627 56.0274887,19.0232456 56.3550231,19.8143191 C56.5889763,20.2797459 56.86972,20.6987822 57.0568826,21.1640569 C57.1036732,21.2572944 57.1036732,21.443313 57.0102448,21.5365505 C54.2492919,24.1896355 51.4887976,26.8422642 48.7281505,29.4953493 C48.4475596,29.7746054 48.2134535,29.7746054 47.8859191,29.6349773 C46.7627911,29.1697026 45.8271314,28.4250196 44.9847472,27.5872514 C43.8617721,26.3769895 42.738644,25.1670318 41.6624595,23.9103794 C41.4286593,23.6311233 41.2882874,23.2122392 41.1011249,22.8864404 C40.5394844,21.4900078 39.7441966,20.279898 38.434059,19.4888245 C38.3404777,19.4422818 38.2936871,19.3491965 38.2468965,19.2561111 C37.4045122,17.7202026 36.3283278,16.3704648 35.2522962,15.020727 C34.5502838,14.1362639 33.8953679,13.1590196 32.9594024,12.4608794 C32.1171711,11.8091297 31.1813585,11.3437029 30.3391271,10.738648 C28.7014551,9.66816633 27.1105737,8.59768462 25.4729016,7.5737456 C24.3968701,6.92230014 23.2271043,6.41017852 22.1041292,5.85166633 C19.1563195,4.40899526 16.2085099,3.05925745 13.1671189,1.8491477 C10.7340062,0.871599255 8.25410279,0.452867209 5.68061815,0.31308706 C4.04294611,0.220153794 2.40527406,0.173611111 0.767602021,0.173611111 C0.720658481,0.173611111 0.720658481,0.173611111 0.767602021,0.220153794 C1.0483458,0.31308706 1.28229895,0.452867209 1.56304273,0.545952575 C6.66322137,2.54713584 11.6698188,4.8278794 16.2553005,7.85315379 C19.0159476,9.66816633 21.6830135,11.6695017 24.0693357,13.9966358 C25.6602171,15.5792392 26.9703547,17.3942517 28.2337017,19.2561111 C30.33928,22.3743188 32.3512771,25.4928306 33.8485773,28.9835318 C34.3164836,30.0538614 34.8311805,31.1244953 34.9715524,32.3344529 C35.0184959,32.7069465 35.0651337,33.0789837 35.0651337,33.49802 C35.1119243,33.8702093 34.9715524,34.4754163 34.8311805,34.8479099 C34.5504367,35.5460501 34.2229023,36.2441904 33.8485773,36.8956358 C33.4742522,37.5008428 33.0063459,37.9662696 32.2578488,38.1058977 C30.0118986,38.4315444 27.7657954,38.477935 25.5199981,38.198831 C25.0988824,38.1519841 24.7245574,37.9662696 24.3502323,37.8266416 C24.1164321,37.7334041 23.882326,37.7334041 23.7887448,37.9662696 C23.6951635,38.1522883 23.6951635,38.477935 23.7887448,38.5711724 C24.0694886,38.8504285 24.4438136,39.1296846 24.8181386,39.3158554 C25.3326827,39.5484167 25.9411138,39.5484167 26.5026013,39.4554834 C28.561389,39.083294 30.6669674,38.8040379 32.7725457,38.9899045 C33.4276145,39.0364472 33.9891021,38.9899045 34.5975332,38.8502764 L34.6443238,38.8502764 C34.6911144,38.8502764 34.5975332,39.1295325 34.4103707,39.4554834 C34.2232081,39.7347395 33.989255,39.9674529 33.6617206,40.107081 C31.6497235,41.1307158 29.5439923,41.8755508 27.2981949,42.3412818 C26.9238699,42.434063 26.5027542,42.3876724 26.0816386,42.3876724 C25.8476854,42.3876724 25.6137323,42.4342151 25.6137323,42.6669285 C25.6137323,42.8530993 25.6605229,43.1790501 25.8008948,43.2255928 C26.1752198,43.4117636 26.5963355,43.5513916 27.0174512,43.5979343 C27.5789387,43.644477 28.1404263,43.4583062 28.6551232,43.1790501 C30.5267484,42.154959 32.3982207,41.2242575 34.4571613,40.7121358 C35.0654395,40.5725078 35.6267741,40.3399465 36.141624,40.0139956 C36.8434834,39.5951114 37.5453429,39.1760752 38.2472023,38.7571911 C38.5748896,38.5247818 38.9492147,38.4312402 39.3703303,38.3851538 C41.054793,38.2455257 42.7391028,37.9195749 44.3769277,37.454148 C44.5172996,37.4076054 44.6576715,37.4076054 44.7980434,37.4076054 C47.4651093,37.5006907 49.9918033,37.0352639 52.5186502,36.2904289 C53.3607286,36.0111728 54.1092258,35.4992033 54.6240756,34.8012151 C54.7176569,34.7082818 54.8113911,34.6147402 54.951763,34.5685017 C55.1855632,34.4754163 55.4196693,34.4288736 55.6066789,34.3357883 C56.0279474,34.103227 56.1683193,33.7772761 55.9810039,33.3118493 C55.9810039,33.2654587 55.9810039,33.1722212 56.0279474,33.1722212 C56.9168165,32.6602517 57.7590478,32.1948249 58.7416511,32.0088062 C59.6774637,31.8226355 60.6132763,32.3344529 60.9411165,33.2187639 C61.1281261,33.7307334 61.3620792,34.0565322 61.8298326,34.2893977 C62.1575199,34.4290257 62.4384166,34.6617392 62.672064,34.9409953 C63.6548201,36.1045623 64.9180142,37.0352639 66.1347235,37.9662696 C68.1467206,39.4554834 70.2055083,40.9450014 72.2175054,42.3876724 C72.4046679,42.5276047 72.5916775,42.6205379 72.7791458,42.7134712 C73.0127931,42.8999461 73.2468992,42.8530993 73.4339088,42.6669285 C73.667862,42.4809099 73.7146526,42.2480444 73.667862,42.015331 C73.6210713,41.8291602 73.5274901,41.6895322 73.3871182,41.5499041 C71.6558649,39.5485688 69.9247645,37.5473855 68.2401489,35.5460501 C67.8190332,35.0804712 67.4447082,34.6150444 67.0705361,34.103227 C66.9303171,33.9169041 66.8832206,33.7307334 66.7897923,33.5447148 C66.7428488,33.49802 66.7428488,33.4050867 66.7897923,33.4050867 C66.8365829,33.4050867 66.8832206,33.3582398 66.9303171,33.4050867 C66.9769548,33.4050867 67.0705361,33.4514773 67.1173267,33.4514773 C70.0183458,34.5221111 72.7322023,35.8716968 75.4928494,37.31452 C76.3817185,37.7800989 77.317684,38.2455257 78.2065531,38.6644099 C78.3001343,38.7108005 78.4874497,38.7571911 78.4874497,38.7108005 C78.5342404,38.5711724 78.6746123,38.3851538 78.6279745,38.338459 C78.4405062,38.0126602 78.2534966,37.7334041 78.0193905,37.5008428 C77.2239498,36.8027026 76.4285091,36.1045623 75.5862778,35.4064221 C72.7320494,32.9862026 69.877821,30.5659831 66.9768019,28.1457636 C66.7897923,27.9594407 66.6960581,27.8198127 66.6960581,27.5404045 C66.6960581,26.609855 66.3217331,26.1909709 65.432864,26.004648 C65.1050238,25.9115627 64.8710707,25.7719346 64.6372704,25.538917 C64.0288393,24.8407768 63.3737705,24.1426365 62.7190075,23.3979536 C62.6719111,23.351563 62.6719111,23.2583255 62.7190075,23.211935 C63.4675047,22.3743188 64.1692112,21.582789 64.8710707,20.7451728 C65.6197207,19.9074045 66.3683708,19.0694841 67.1170209,18.2318679 C67.2573928,18.0456972 67.350974,17.9060691 67.3041834,17.6733557 C67.2573928,17.3940996 67.3977647,17.2543194 67.6785084,17.3010142 C67.9124616,17.3475569 68.1465676,17.3940996 68.4273114,17.487185 C68.4739491,17.487185 68.5205869,17.487185 68.5205869,17.3940996 C68.4737962,17.0683008 68.4273114,16.7890447 68.380215,16.4632459 C68.380215,16.4167033 68.4273114,16.3701606 68.4737962,16.4167033 C68.6141681,16.4632459 68.75454,16.5563313 68.9417025,16.602874 C68.9886461,16.6494167 69.0352838,16.602874 68.9886461,16.5563313 C68.8950648,16.3236179 68.8013306,16.1374472 68.7080552,15.9978191 C68.5676833,15.7649536 68.614321,15.6253255 68.7546929,15.4393069 C71.3281776,12.5536606 74.2291966,10.133289 77.6449126,8.31812432 C80.6395129,6.68913042 83.8214286,5.6651914 87.1434104,5.06013652 C87.704898,4.96720325 88.2663855,4.78103252 88.7810825,4.59486179 C88.9214544,4.54831911 89.0618263,4.45508164 89.2021981,4.36214837 C89.2492946,4.31545359 89.2492946,4.26906301 89.2021981,4.26906301 C88.9680921,3.98980691 88.6873483,3.98980691 88.3598139,4.03634959" id="Bird" sketch:type="MSShapeGroup"></path>
            </g>
        </g>
    </g>
</svg>