<?xml version="1.0" encoding="UTF-8" standalone="no"?>
<svg width="44px" height="74px" viewBox="0 0 44 74" version="1.1" xmlns="http://www.w3.org/2000/svg" xmlns:xlink="http://www.w3.org/1999/xlink" xmlns:sketch="http://www.bohemiancoding.com/sketch/ns">
    <!-- Generator: Sketch 3.3.2 (12043) - http://www.bohemiancoding.com/sketch -->
    <title>Cooksonia 2</title>
    <desc>Created with Sketch.</desc>
    <defs></defs>
    <g id="Page-1" stroke="none" stroke-width="1" fill="none" fill-rule="evenodd" sketch:type="MSPage">
        <g id="Startscreen-2-Copy-16" sketch:type="MSArtboardGroup" transform="translate(-400.000000, -953.000000)" fill="#4A4A4A">
            <g id="Cooksonia-2" sketch:type="MSLayerGroup" transform="translate(400.000000, 953.257500)">
                <path d="M39.9396187,18.4090712 C38.4360069,20.4061866 36.8509812,22.4466331 36.8509812,22.4466331 C36.4851278,22.7127299 36.0790762,22.4905196 36.0790762,22.4905196 C31.486827,20.1834207 32.5431715,15.8792064 32.5431715,15.8792064 C34.9006109,13.7498759 34.371421,10.0222974 34.371421,10.0222974 L33.7216368,9.88897118 C33.9653695,12.4627225 32.7869042,14.2820696 32.7869042,14.2820696 C32.1773181,15.5686675 31.3234905,15.3025706 31.3234905,15.3025706 C29.1293875,14.8587055 28.4378787,11.7533159 28.4378787,11.7533159 L27.6659738,11.8422001 C28.4378787,15.3470127 31.2827835,16.6341661 31.2827835,16.6341661 C31.4043955,19.6067849 33.5588091,22.3133069 33.5588091,22.3133069 C35.5911021,23.067711 35.4282744,24.6204057 35.4282744,24.6204057 C34.8181794,31.5428134 30.6329993,33.3171629 30.6329993,33.3171629 C30.1450252,33.9382408 29.4540252,33.6277019 29.4540252,33.6277019 C27.665465,32.4744302 26.9342669,28.3035421 26.9342669,28.3035421 L26.2855004,28.2679885 C25.8336536,29.3790402 28.0959406,33.3416061 28.0959406,33.3416061 C28.0959406,33.3416061 28.7248625,33.694365 28.8866725,35.6248173 C29.171621,39.02408 24.8175071,43.7688263 24.8175071,43.7688263 C24.195709,46.2370277 22.726698,45.7431652 22.726698,45.7431652 C20.0705716,45.6198385 15.8319636,35.1309548 15.8319636,35.1309548 C15.7759916,34.6376479 15.2844556,32.6566427 15.2844556,32.6566427 C14.5385013,31.3211586 15.2106743,29.7634641 15.2106743,29.7634641 C16.4537618,28.1591054 18.2056858,23.6549018 18.2056858,23.6549018 C18.3736019,22.2383109 18.8839649,21.8038897 18.8839649,21.8038897 C20.6358889,18.5957279 20.2400141,14.7703768 20.2400141,14.7703768 L19.6752056,14.8937036 C19.3342852,19.5179008 18.6580415,20.3234133 18.6580415,20.3234133 C16.1148767,23.5932384 15.323636,17.3619049 15.323636,17.3619049 L14.7018378,17.4852317 C14.8712804,22.4210789 17.470926,22.0505431 17.470926,22.0505431 C17.9797624,23.7782285 15.4365977,27.171936 15.4365977,27.171936 C14.1935102,31.1206137 12.8252488,28.5290856 12.8252488,28.5290856 C12.6435942,28.0357787 10.1243448,25.8142308 10.1243448,25.8142308 C8.99421895,25.1975971 7.46821833,21.8038897 7.46821833,21.8038897 C5.77277516,18.4107378 7.18581408,17.3619049 7.18581408,17.3619049 C11.3679412,15.202576 10.637252,8.33683195 10.637252,8.33683195 C11.315531,7.84296947 12.2792673,5.51531615 12.2792673,5.51531615 L11.8762688,5.2692182 C11.8340354,5.37365706 11.7912931,5.47420724 11.7500774,5.57031321 C10.5217461,8.40960584 9.72847,7.42854719 9.72847,7.42854719 C9.1636615,7.18133818 8.8247764,6.18139165 8.8247764,6.18139165 L7.96128088,6.18139165 C8.92043766,7.69353302 9.87959443,8.39182901 9.87959443,8.39182901 C10.945098,16.0708629 5.83027368,17.1174736 5.83027368,17.1174736 C3.44332172,16.6341661 2.87444253,12.9515852 2.87444253,12.9515852 L2.10050224,13.2349034 L3.69875764,16.4658417 C5.28480097,18.7312762 5.51021553,19.4629037 5.51021553,19.4629037 C6.78943045,25.1820424 9.23998697,26.657519 9.23998697,26.657519 C11.5847055,27.7046853 14.035262,33.5215965 14.035262,33.5215965 C15.9535756,41.3167352 21.9970265,48.189701 22.1344124,48.1808126 C22.2931693,48.1708132 22.1873314,48.5252387 22.2107378,48.7007848 C23.4751965,58.0480628 19.4701445,72.8456049 19.4701445,72.8456049 L21.48819,72.8456049 C23.8049225,69.1563577 24.0893621,49.7790605 24.0893621,49.7790605 C24.0084571,47.6047323 24.3743106,47.737503 24.3743106,47.737503 C25.0240948,46.4064631 30.3480509,37.3102828 30.4294647,36.068127 C30.5108786,34.8254156 31.648637,33.8937988 31.648637,33.8937988 C35.7941278,32.1638913 36.6067397,24.6648478 36.6067397,24.6648478 C36.5258347,23.6887889 37.4203692,22.757172 37.4203692,22.757172 C39.4740333,20.3078585 41.4839374,17.1663598 41.4839374,17.1663598 L40.5492048,17.1219178 C40.5492048,17.1219178 40.2515354,17.9946489 39.9396187,18.4090712" id="Fill-1" sketch:type="MSShapeGroup"></path>
                <path d="M7.73128679,5.75530332 L8.88939863,5.75530332 C8.88939863,5.75530332 9.37686398,2.54603047 8.88939863,1.87273314 C8.40142444,1.19943581 7.12119184,2.4799229 7.12119184,2.4799229 C5.47510581,2.81268288 6.51211457,4.2098304 6.51211457,4.2098304 C6.88152986,4.47314965 7.73128679,5.75530332 7.73128679,5.75530332" id="Fill-2" sketch:type="MSShapeGroup"></path>
                <path d="M2.84950955,8.79680736 C2.36153536,8.12351003 1.08181159,9.40344159 1.08181159,9.40344159 C-0.564274438,9.73620157 0.471716647,11.1339046 0.471716647,11.1339046 C0.842149609,11.3972239 1.93513038,12.9454744 1.93513038,12.9454744 L2.88054857,12.4577227 C2.88054857,12.4577227 3.3369749,9.47010469 2.84950955,8.79680736" id="Fill-3" sketch:type="MSShapeGroup"></path>
                <path d="M12.4018969,5.16755697 C12.4018969,5.16755697 13.9217915,3.4898689 14.2912068,3.22654964 C14.2912068,3.22654964 15.3277067,1.82940212 13.6816207,1.49608661 C13.6816207,1.49608661 12.4013881,0.21615505 11.9139227,0.889452382 C11.4259485,1.56274971 11.9103608,4.87312827 11.9103608,4.87312827 L12.4018969,5.16755697" id="Fill-4" sketch:type="MSShapeGroup"></path>
                <path d="M20.2949685,14.3009575 C20.2949685,14.3009575 21.7344669,12.807704 22.104391,12.5449403 C22.104391,12.5449403 23.1408909,11.1472372 21.4948049,10.8139217 C21.4948049,10.8139217 20.2145723,9.53399016 19.7271069,10.2072875 C19.2391328,10.8811404 19.6080392,14.4003966 19.6080392,14.4003966 L20.2949685,14.3009575" id="Fill-5" sketch:type="MSShapeGroup"></path>
                <path d="M12.8954683,15.4786723 C13.2684454,15.7442137 14.5344306,17.1752483 14.5130595,17.1430278 L15.2844556,16.9463716 C15.2844556,16.9463716 15.7607265,13.8143169 15.2732612,13.141575 C14.785287,12.4677222 13.5055632,13.7482093 13.5055632,13.7482093 C11.8594772,14.0809693 12.8954683,15.4786723 12.8954683,15.4786723" id="Fill-6" sketch:type="MSShapeGroup"></path>
                <path d="M26.9943096,27.839678 C26.9943096,27.839678 28.0145268,25.8370073 28.3050724,25.474249 C28.3050724,25.474249 28.9538389,23.8215595 27.2873994,23.9898839 C27.2873994,23.9898839 25.7369747,23.1377072 25.4352346,23.9304426 C25.1334946,24.723178 26.2946595,27.7630155 26.2946595,27.7630155 L26.9943096,27.839678" id="Fill-7" sketch:type="MSShapeGroup"></path>
                <path d="M42.7840146,13.0510243 C42.7840146,13.0510243 41.503782,11.7710928 41.0163167,12.4443901 C40.5283425,13.1176874 40.6128093,16.66472 40.6128093,16.66472 L41.7042636,16.7586039 C41.7042636,16.7586039 43.0236766,15.0448066 43.3936007,14.7814874 C43.3936007,14.7814874 44.4301007,13.3837843 42.7840146,13.0510243" id="Fill-8" sketch:type="MSShapeGroup"></path>
                <path d="M34.499139,9.58454302 C34.499139,9.58454302 35.9930829,7.93518676 36.363007,7.67186751 C36.363007,7.67186751 37.3989981,6.27416446 35.7529121,5.94140448 C35.7529121,5.94140448 34.4731883,4.66091739 33.9857229,5.33477025 C33.4977488,6.00806758 33.6967038,9.41066342 33.6967038,9.41066342 L34.499139,9.58454302" id="Fill-9" sketch:type="MSShapeGroup"></path>
                <path d="M27.5306233,11.4283333 L28.4399141,11.3316718 C28.4399141,11.4538875 28.9619803,8.27683516 28.4511085,7.57131733 C27.9636431,6.89802 26.6834105,8.17795156 26.6834105,8.17795156 C25.0373245,8.51071154 26.0733156,9.90841459 26.0733156,9.90841459 C26.4432397,10.1717338 27.5306233,11.4283333 27.5306233,11.4283333" id="Fill-10" sketch:type="MSShapeGroup"></path>
            </g>
        </g>
    </g>
</svg>