<?xml version="1.0" encoding="UTF-8" standalone="no"?>
<svg width="94px" height="50px" viewBox="0 0 94 50" version="1.1" xmlns="http://www.w3.org/2000/svg" xmlns:xlink="http://www.w3.org/1999/xlink" xmlns:sketch="http://www.bohemiancoding.com/sketch/ns">
    <!-- Generator: Sketch 3.3.2 (12043) - http://www.bohemiancoding.com/sketch -->
    <title>Dinosaurier 2</title>
    <desc>Created with Sketch.</desc>
    <defs></defs>
    <g id="Page-1" stroke="none" stroke-width="1" fill="none" fill-rule="evenodd" sketch:type="MSPage">
        <g id="Startscreen-2-Copy-16" sketch:type="MSArtboardGroup" transform="translate(-1109.000000, -970.000000)" fill="#4A4A4A">
            <g id="Dinosaurier-2" sketch:type="MSLayerGroup" transform="translate(1109.000000, 970.000000)">
                <path d="M88.7443481,4.51701259 C87.469087,2.872973 87.6754529,2.45605468 85.8417016,3.40389892 C83.4588099,3.73876506 80.9997833,1.01090426 78.718405,0.509770106 C75.6180746,-0.172111875 72.6311119,0.752764417 70.0538757,2.49050661 C67.1594103,4.44544577 65.5660853,7.72270671 61.7928952,7.62001665 C58.3481208,7.52431684 55.0918472,7.20842423 51.686476,7.99016689 C44.5903943,9.61922738 39.274302,14.3800851 32.6064796,16.9047294 C28.2500888,18.5534292 23.9442877,18.9866581 19.3583233,18.9866581 L7.61383304,18.9866581 C2.9829556,18.9868245 0,21.8911058 0,26.7776216 C0.823793961,26.4217847 1.38779396,24.7289798 2.24464654,24.0064878 C3.0585897,23.3186142 3.81276021,23.4163112 4.82455417,23.4163112 C6.96134281,23.4163112 8.96289165,23.7070722 11.0228774,24.205377 C15.635222,25.3223186 20.2489023,26.438761 24.8640853,27.5550369 C27.1671687,28.1137574 29.5862913,28.2191104 31.9127496,28.7155844 C33.3057194,29.012337 34.7185577,29.4312526 36.1437513,29.5502532 C38.0137336,29.7043715 38.9630835,30.5580139 40.509492,31.452932 C40.6377194,31.575927 41.2022202,31.5419744 41.400405,31.675122 C41.2022202,32.3358668 40.9140426,32.9510085 40.5352043,33.5268718 C39.7498117,34.7273635 38.6401776,35.7567606 37.3594067,36.3942046 C35.6639005,37.2341993 36.1387425,39.2633683 35.2880675,40.7023606 C34.4378934,42.1391893 32.6482202,43.955655 32.6482202,45.721691 C32.9479183,45.721691 33.3356057,45.6374752 33.5855488,45.4778646 C34.2280213,46.5528647 34.4330515,49.0402277 35.710984,49.0402277 L38.3403126,49.0402277 C38.3681954,49.0635286 38.3858934,49.0776755 38.3858934,49.0776755 C38.3858934,49.0776755 39.4572931,49.1645543 40.241016,49.4070493 C40.7313854,49.5590039 40.4036377,48.9445279 39.7693464,48.4835045 L40.5786146,48.4835045 C40.7273783,48.5187886 40.8738046,48.5567356 41.0118828,48.5995093 C41.4745364,48.7428093 41.3471439,48.3360435 40.9153783,47.8818439 C41.0569627,47.9142986 41.1978792,47.9490834 41.3301137,47.9896934 C42.027016,48.2057253 41.0719893,46.8774119 39.9329698,46.6364148 C39.4133819,46.3077068 38.7264973,46.1066539 38.0406146,45.8215517 C36.6783659,45.2606676 38.1027247,41.5931178 38.70546,40.8391697 C40.5943091,38.4728046 43.2054387,37.3292334 45.8669911,35.9052202 C44.7655382,39.5779294 48.5435702,38.0394093 50.5573073,39.2442283 C51.843421,40.1195071 53.4652966,42.1891196 55.0701421,42.8565218 C55.361659,43.1900565 55.8418437,43.7685827 56.1786075,44.3274696 C56.5940107,45.0176733 56.6457691,43.3123858 56.0313464,42.1606593 C56.0831048,42.1606593 56.1574032,42.1749727 56.2412185,42.1939462 C56.256746,42.272004 56.2684334,42.3222672 56.2684334,42.3222672 C56.2684334,42.3222672 57.3249734,43.4461991 57.9592647,44.4995628 C58.3679893,45.178449 58.4898721,43.987444 58.1435915,42.7528332 C58.3861883,42.8072572 58.6186004,42.8445385 58.8196234,42.8465358 C58.978071,43.0587397 59.1356838,43.2837591 59.2689201,43.5057826 C59.5641101,43.9960986 59.6736377,43.2756038 59.493151,42.4044858 C59.510849,42.2591885 59.4893108,42.0771092 59.4066643,41.8394408 C59.2867851,41.4937565 59.0897691,41.1996668 58.8501776,40.9328723 C58.8049307,40.877949 58.7575133,40.8276858 58.7075915,40.7794198 C57.77427,39.8450567 56.3111758,39.2332436 55.6937478,37.9077596 C55.0806607,36.7295701 51.8773144,36.7671842 50.7536554,36.2553983 C49.1466394,35.5222545 51.1006039,32.7754202 51.798675,31.7982835 C52.8846004,30.2759075 54.2934316,28.9807145 55.6485009,27.6968391 C56.7840142,26.620341 61.3791616,26.8045839 63.0611439,26.3678599 C64.7095666,25.9394576 66.7470124,24.5072891 68.422984,24.5072891 C70.3438899,24.5072891 71.4984369,27.0687154 73.5599254,27.0687154 C73.4904689,26.7766229 73.5599254,26.4141287 73.5599254,26.1118837 C75.4130444,26.9430574 76.4944618,26.4141287 77.3047318,28.2285972 C77.2932114,28.3765574 77.2937123,28.4913972 77.2937123,28.4913972 C77.2937123,28.4913972 77.7106181,29.2471761 77.917151,29.9185727 C77.975087,30.1074758 78.0457123,30.081512 78.105151,29.9362147 C78.3113499,29.8859515 78.5409236,29.7508067 78.7726679,29.5592407 C78.8701741,29.7902517 78.964508,30.0345775 79.0376377,30.2729116 C79.2114458,30.8391217 79.4825933,29.8824564 79.4007815,28.9006595 C79.4627247,28.8212703 79.5224973,28.7397174 79.5806004,28.6561673 C79.7188455,28.9384401 79.9061776,29.3487011 80.0247211,29.7358276 C80.2217371,30.3769332 80.571524,28.6004118 80.0723055,27.7421092 C80.2928632,27.1710726 80.3290941,26.6271648 80.0103623,26.3101072 C79.4952824,25.7961575 79.1022522,24.5710335 78.6178934,24.4094256 C77.3604973,23.9938388 75.6402806,24.083547 74.8979645,22.7728756 C75.4250657,22.8178129 75.9823872,23.0411679 76.5056483,23.0411679 C76.5056483,20.7412101 72.8371439,20.6366893 71.3700426,20.6366893 C71.3700426,18.4861896 71.7512185,16.2975765 72.7655169,14.3792529 C73.284103,13.3972896 74.9041421,10.7531454 76.2370053,10.7531454 C78.1797833,10.7531454 78.9184263,12.9995113 80.132913,14.1102948 C80.7004192,14.6310683 81.4632718,14.8938683 82.1090835,15.3061264 C83.700405,16.3158843 86.0941492,18.5655789 88.0961989,18.5655789 C91.25146,18.5655789 85.7520426,12.1606816 85.1708455,11.4198818 C86.3005151,10.6695953 93.901325,16.7694182 93.901325,11.1978582 C93.9026607,8.08203871 90.4765861,6.49908057 88.7443481,4.51701259" id="Imported-Layers" sketch:type="MSShapeGroup"></path>
            </g>
        </g>
    </g>
</svg>