<?xml version="1.0" encoding="UTF-8" standalone="no"?>
<svg width="80px" height="65px" viewBox="0 0 80 65" version="1.1" xmlns="http://www.w3.org/2000/svg" xmlns:xlink="http://www.w3.org/1999/xlink" xmlns:sketch="http://www.bohemiancoding.com/sketch/ns">
    <!-- Generator: Sketch 3.3.2 (12043) - http://www.bohemiancoding.com/sketch -->
    <title>Elephant 2</title>
    <desc>Created with Sketch.</desc>
    <defs></defs>
    <g id="Page-1" stroke="none" stroke-width="1" fill="none" fill-rule="evenodd" sketch:type="MSPage">
        <g id="Startscreen-2-Copy-16" sketch:type="MSArtboardGroup" transform="translate(-1241.000000, -957.000000)" fill="#4A4A4A">
            <g id="Elephant-2" sketch:type="MSLayerGroup" transform="translate(1241.000000, 957.757500)">
                <path d="M2.48665511,44.8291726 C3.18419411,44.0121062 3.91168111,43.2156637 4.55542461,42.3573494 C5.38287695,41.2548704 6.01885615,40.0391674 6.51771231,38.7463671 C7.00700173,37.4773742 7.57823224,36.2396633 8.09261698,34.9796674 C8.31542461,34.4341721 8.49136915,33.8688834 8.67577123,33.3081624 C8.79417678,32.9481438 9.03570191,32.7185126 9.44069324,32.5269456 C9.44069324,32.74232 9.44235702,32.9150625 9.44069324,33.087805 C9.41240901,35.7330627 9.37275563,38.378182 9.35986135,41.0234397 C9.35362218,42.3014296 9.71840555,43.5257143 9.99265165,44.7609338 C10.0837435,45.1713356 10.2064471,45.5746782 10.3151473,45.9806508 C10.5149393,46.7293399 10.3915425,47.4513149 10.1764991,48.1807644 C9.86038128,49.2548683 9.58599653,50.3408759 9.29344887,51.4219006 C9.09837088,52.144014 8.86932409,52.8596219 8.71542461,53.5908708 C8.36187175,55.2722033 8.44395147,56.9641938 8.68034662,58.6520318 C8.80540728,59.5421816 8.93435009,60.4243033 8.65830156,61.3159756 C8.55098787,61.6638137 8.47403813,62.0415494 8.48804159,62.4014296 C8.5139688,63.0615329 8.95750433,63.4884062 9.61317158,63.5567834 C10.2398614,63.6222539 10.8684922,63.6832951 11.497539,63.7122239 C12.3209705,63.7498729 13.1481456,63.7979031 13.9706066,63.7630224 C14.9604159,63.7203905 15.9460659,63.5890342 16.9342114,63.5111063 C17.2097054,63.4889598 17.2554593,63.3378101 17.224818,63.1196674 C17.1814211,62.8096168 17.1265165,62.5013656 17.0721664,62.1715215 C17.1175043,62.1488214 17.1665858,62.1190621 17.219688,62.0991303 C17.6648873,61.9349695 17.8544194,61.5119719 17.5965338,61.109875 C17.3464125,60.7203739 17.0332062,60.3661688 16.7208319,60.0212375 C16.4352166,59.7055118 16.0726516,59.453042 15.8174003,59.1169693 C15.4337608,58.6103688 15.0922704,58.0683339 14.7753206,57.5167483 C14.4999653,57.0364466 14.5626343,56.4955191 14.7068284,55.9958393 C14.942253,55.1859705 15.1595147,54.3546472 15.5315078,53.605266 C15.9195841,52.8239108 16.4141421,52.0705154 16.9855113,51.4108274 C17.7067591,50.5779816 18.5558406,49.8550377 19.3444714,49.0789423 C20.1454419,48.2916352 20.6925477,47.3616217 20.9475217,46.2605268 C21.0476256,45.8279785 21.1783709,45.4016589 21.3213172,44.9807375 C21.3475217,44.9050243 21.5036395,44.8222518 21.5941768,44.8283421 C22.6320971,44.8947815 23.6679376,45.0056523 24.7064125,45.0469001 C25.3813518,45.0740295 26.0608666,45.0056523 26.7378856,44.9807375 C26.9074523,44.9745088 27.0784055,44.9756162 27.2479723,44.9693875 C28.6056153,44.9220494 29.9683882,44.9304927 31.3186828,44.8055036 C32.2162912,44.7225927 33.0559445,44.3384898 33.8614905,43.9156306 C34.4372964,43.6127776 35.0261352,43.3349778 35.6245407,43.0383535 C36.0160832,43.4349137 36.2271057,43.9261502 36.3549393,44.4589113 C36.7502253,46.1089619 36.8702946,47.7936164 36.9713692,49.4797934 C37.0253033,50.3714658 37.1180589,51.2632765 37.1161179,52.1550873 C37.1144541,53.1437889 37.0093588,54.1315215 36.9799653,55.1210536 C36.9641594,55.6517385 37.062461,56.1883752 37.0233622,56.715738 C36.957227,57.6035348 36.8435355,58.4895321 36.7054419,59.3699928 C36.6602426,59.6578969 36.4815251,59.9264229 36.3577123,60.2007623 C36.0210745,60.9439149 36.0974697,61.5990352 36.6064471,62.0761533 C36.7089081,62.172352 36.8775043,62.2545708 37.0126863,62.2497263 C38.4636395,62.1942217 39.9134835,62.1102035 41.3644367,62.0548373 C42.2967071,62.0191261 43.2307799,62.0142816 44.1637435,62.0095755 C44.2879723,62.0091602 44.4451993,62.057744 44.5306066,62.141347 C44.8614211,62.4619172 45.28,62.4624708 45.6845754,62.4681459 C46.8400693,62.4846173 47.9959792,62.4743745 49.152305,62.4732672 C49.6342461,62.4727136 50.1185442,62.4976283 50.5970191,62.4587336 C50.9125823,62.4332652 51.2219064,62.3207334 51.5308146,62.2361616 C51.7050953,62.1881314 51.8681456,62.0956699 52.0439515,62.061066 C52.7780936,61.9187749 52.787799,61.7559983 52.6440208,61.0031567 C52.5967418,60.754701 52.3604853,60.5394649 52.2040901,60.314263 C52.0568458,60.1023489 51.9075217,59.8912654 51.7439168,59.6913935 C51.6892894,59.6241235 51.5729636,59.6093131 51.5115425,59.5449499 C50.9656846,58.9739862 50.3387175,58.4646173 50.0221837,57.711222 C49.9435702,57.5249148 49.8982322,57.3175684 49.8757712,57.1161739 C49.7171577,55.7104266 49.5158406,54.3070323 49.4336222,52.8969941 C49.3715078,51.8271811 49.4720277,50.7487863 49.4882496,49.6741287 C49.5011438,48.7755356 49.4768804,47.8766656 49.505026,46.9786262 C49.5385789,45.9144882 49.5510572,44.8443983 49.6783362,43.7900878 C49.8813172,42.1105547 49.8558059,40.4314368 49.7685962,38.7549489 C49.6951127,37.3378515 49.499896,35.9272596 49.3764991,34.5119616 C49.3676256,34.4046896 49.4731369,34.2381758 49.5735182,34.1783803 C50.6635702,33.5294887 51.7598614,32.8895941 52.8612825,32.2606342 C54.0948354,31.5563764 55.3365685,30.8651296 56.6965685,30.099969 C56.9306066,30.3693255 57.1994454,30.6951555 57.4854766,31.0040988 C57.7400347,31.2778845 58.0213518,31.5268939 58.2775737,31.7991571 C58.6063085,32.1475488 58.9390641,32.4941411 59.2364645,32.8682781 C59.5280416,33.2341101 59.7742808,33.3703109 60.0033276,33.2148704 C60.2682842,33.0358992 60.3439861,32.5349737 60.145026,32.2227084 C60.0676603,32.1024254 59.9785095,31.9867101 59.877851,31.8856668 C59.1084922,31.1097097 58.7534142,30.1048136 58.344818,29.129123 C58.307383,29.0398451 58.2670364,28.9516744 58.2004853,28.8003863 C58.6620451,28.5845966 59.1219411,28.3616093 59.5891854,28.1553703 C59.90974,28.0141866 60.235286,27.8814461 60.567487,27.7718211 C61.1896014,27.5662741 61.6614211,27.1614089 62.0770884,26.6790311 C62.3346967,26.3810226 62.6696707,26.2127094 63.002149,26.4356967 C63.8172617,26.9817457 64.7590988,26.9953104 65.6665511,27.1641773 C65.7141075,27.1731743 65.7648527,27.1726206 65.8090815,27.1895073 C65.9963951,27.2617601 66.2038128,27.3443942 66.32,27.1168392 C66.3833622,26.9925421 66.3521664,26.8197996 66.3714385,26.5706518 C66.5457192,26.330501 66.9161872,26.423793 67.2403466,26.3854519 C67.5991681,26.3424047 67.9628423,26.305171 68.3231889,26.318182 C68.5820451,26.3277327 68.8436742,26.4046917 69.0937955,26.4837269 C70.6424957,26.973856 72.2343154,27.1252825 73.8251646,26.8700444 C74.8994107,26.6977172 75.9997227,26.4921702 76.9233969,25.8167028 C77.5366378,25.3685136 78.0971924,24.8850284 78.2408319,24.0881706 C78.2707799,23.9248404 78.2454073,23.7515443 78.1860659,23.5244045 C76.5963258,24.9906394 74.6803466,24.976521 72.6588562,24.9420556 C73.1818371,24.4217519 74.0123397,24.2647888 73.9529983,23.2990641 C73.2589255,23.5527797 72.615182,23.7995744 71.9627036,24.0225617 C71.2510225,24.2658961 70.5299133,24.4649375 69.7472444,24.1176531 C70.1544541,23.9734242 70.5509879,23.7652474 70.9706759,23.6972854 C72.4300867,23.4625328 73.4770191,22.6712117 74.2972617,21.476271 C74.8223224,20.7111104 75.227175,19.9069166 75.4894974,19.0207809 C75.7654073,18.0873071 75.7580589,17.1334862 75.7156326,16.1778659 C75.6636395,15.0128231 75.1764298,13.9640492 74.8001386,12.8859312 C74.4131716,11.7769466 74.1996534,10.6264374 74.342461,9.46264022 C74.4924783,8.24790621 74.8967764,7.09462866 75.5491161,6.04197914 C75.8406932,5.57205867 76.1013518,5.08068381 76.422461,4.63290982 C77.0404159,3.77182729 77.8728596,3.19006714 78.8899827,2.87558723 C79.1758752,2.78741659 79.4551127,2.67682264 79.7421144,2.59321971 C80.0080416,2.51584547 79.9736568,2.27306477 79.9040555,2.15319698 C79.6328596,1.68521434 79.7228423,1.1859498 79.7128596,0.694990188 C79.7020451,0.207767794 79.3850953,-0.0700320205 79.0106066,0.20209276 C78.3940381,0.650835658 77.6683536,0.711461627 77.0013172,0.967253384 C75.6751473,1.47593017 74.4920624,2.23998347 73.4863085,3.22605516 C72.4381282,4.25323624 71.517643,5.37952278 70.9622184,6.78859209 C70.4989948,7.96429295 69.9316464,9.10732776 69.7203466,10.3576345 C69.4824263,11.7712716 69.5083536,13.1925214 69.7935529,14.6130792 C69.9308146,15.29699 69.9409359,16.0089991 69.9660312,16.7099349 C69.9722704,16.8907055 69.8488735,17.1019275 69.729636,17.2552918 C69.3770537,17.7087408 68.9971577,18.1401818 68.6949047,18.5007541 C68.0963605,18.2946534 67.5410745,18.082601 66.9734489,17.9133189 C66.4002773,17.7426526 65.8786828,17.5004256 65.4058925,17.1258734 C65.02974,16.8278649 64.5964645,16.6034934 64.2010399,16.3286004 C63.5080763,15.8478835 62.8336915,15.3401756 62.1350433,14.8694246 C61.6451993,14.5388885 61.1402426,14.2266233 60.6197574,13.9471625 C59.7708146,13.4909452 58.9125823,13.0492614 58.0420104,12.6356761 C57.2353553,12.253511 56.3568804,12.2997418 55.5041941,12.3736556 C54.3140381,12.477052 53.1797574,12.8187997 52.145026,13.4354406 C51.2241248,13.9842578 50.3138995,14.5513459 49.3953553,15.1041773 C48.8919237,15.4068919 48.3345581,15.4928478 47.7554246,15.4803905 C47.4312652,15.4734697 47.1025303,15.442603 46.7835009,15.4820514 C46.2653726,15.546553 45.8879723,15.2144944 45.4632929,15.0445202 C44.4661352,14.6450532 43.4501213,14.3763888 42.3792028,14.2819895 C41.5255459,14.2069683 40.6781282,14.0653693 39.825026,13.9792749 C38.4379896,13.8398905 37.0589948,13.8574693 35.7505719,14.4180519 C34.9874523,14.7451276 34.2542808,15.1415494 33.490052,15.4640574 C33.2892894,15.5487677 33.0114385,15.5163785 32.7846101,15.467241 C31.9010052,15.2759508 31.0251646,15.0489495 30.1435009,14.8476934 C29.3577816,14.6687222 28.5634662,14.5269848 27.7823224,14.3309885 C26.3658925,13.9753992 25.035286,14.3905072 23.7110572,14.7766863 C22.7505026,15.0568392 21.8063085,15.4057845 20.8798614,15.7846276 C20.2229463,16.0534304 19.5839168,16.3856275 18.9792721,16.7571346 C17.9966724,17.3609028 16.9949393,17.954013 16.0994107,18.6732197 C15.132617,19.4502841 14.24,20.3312984 13.3870364,21.2344593 C12.6266898,22.038653 11.9434315,22.9184217 11.2657192,23.796114 C10.7520277,24.4612003 10.2513692,25.1463568 9.8359792,25.87373 C9.29913345,26.8144014 8.81220104,27.789123 8.38405546,28.7836381 C8.13850953,29.3522487 8.04811092,29.9878525 7.8935182,30.5948043 C7.73005199,31.2376056 7.5959792,31.8880198 7.4092201,32.5233468 C7.12069324,33.5044355 6.81317158,34.480126 6.48485269,35.4487574 C6.22253033,36.2241607 5.93677643,36.9926433 5.62689775,37.7507448 C5.36332756,38.3967297 5.05774697,39.0258279 4.75785095,39.6565871 C4.34329289,40.5298502 3.95757366,41.4197232 3.48159445,42.2594897 C3.0857539,42.9580725 2.62183709,43.6311869 2.10204506,44.2424295 C1.82863085,44.5625844 1.34183709,44.6906187 0.999514731,44.9663423 C0.483466205,45.3820039 0.109670711,45.9075674 0,46.7089929 C0.372686308,46.538465 0.681039861,46.4227497 0.96457539,46.2628799 C1.58779896,45.9133809 2.03105719,45.3622105 2.48665511,44.8291726 L2.48665511,44.8291726 Z M42.3258232,56.8671646 C42.5170191,56.4836153 42.6302946,56.0459457 42.6987868,55.6200413 C42.8910919,54.4313294 43.0473484,53.2368041 43.2073484,52.0429708 C43.3414211,51.0429191 43.4619064,50.0412065 43.5886308,49.0399091 C43.6130329,49.0415701 43.6372964,49.0437847 43.6612825,49.0455841 C43.8275217,49.7339242 43.9979203,50.4217106 44.16,51.1107427 C44.4338302,52.277585 44.4960832,53.4510712 44.3423224,54.6449045 C44.2535875,55.3372585 44.142253,56.0639397 44.4647487,56.71906 C44.8514385,57.5041525 44.7639515,58.2878608 44.6020104,59.0848569 C44.5059272,59.5597604 44.3692201,60.026082 44.222669,60.6060428 C44.0270364,60.3700444 43.9028076,60.229968 43.7891161,60.0821403 C43.4243328,59.6036381 43.0743847,59.114201 42.6987868,58.6441421 C42.2707799,58.110689 41.9683882,57.5844334 42.3258232,56.8671646 L42.3258232,56.8671646 Z" id="Elephant" sketch:type="MSShapeGroup"></path>
            </g>
        </g>
    </g>
</svg>