<?xml version="1.0" encoding="UTF-8" standalone="no"?>
<svg width="72px" height="34px" viewBox="0 0 72 34" version="1.1" xmlns="http://www.w3.org/2000/svg" xmlns:xlink="http://www.w3.org/1999/xlink" xmlns:sketch="http://www.bohemiancoding.com/sketch/ns">
    <!-- Generator: Sketch 3.3.2 (12043) - http://www.bohemiancoding.com/sketch -->
    <title>Fisch 2</title>
    <desc>Created with Sketch.</desc>
    <defs></defs>
    <g id="Page-1" stroke="none" stroke-width="1" fill="none" fill-rule="evenodd" sketch:type="MSPage">
        <g id="Startscreen-2-Copy-16" sketch:type="MSArtboardGroup" transform="translate(-268.000000, -979.000000)" fill="#4A4A4A">
            <g id="Fisch-2" sketch:type="MSLayerGroup" transform="translate(268.000000, 979.859608)">
                <path d="M55.2307317,16.1052632 C55.2307317,16.1052632 59.9205366,3.68989474 71.2195122,0.665684211 C69.3268537,0.245157895 67.4466585,0 65.6163171,0 C56.3916098,0 50.5569512,6.09136842 47.4197317,10.7815789 C43.661122,8.14031579 38.7113659,5.066 33.4535854,2.87210526 C34.9776829,1.94694737 36.6602439,1.16673684 38.5422195,0.665684211 C36.649561,0.243368421 34.7693659,0 32.9390244,0 C30.9057073,0 29.050439,0.314947368 27.3376098,0.826736842 C25.2241707,0.307789474 23.1160732,0 21.0685122,0 C6.07502439,0 0,16.1052632 0,16.1052632 C0,16.1052632 6.0732439,32.2105263 21.0685122,32.2105263 C23.1160732,32.2105263 25.2241707,31.9027368 27.3376098,31.3837895 C29.0486585,31.8955789 30.9039268,32.2105263 32.9390244,32.2105263 C34.7711463,32.2105263 36.6513415,31.9653684 38.5422195,31.5448421 C36.6566829,31.0437895 34.9759024,30.26 33.4518049,29.3366316 C38.7113659,27.1445263 43.657561,24.072 47.4179512,21.4289474 C50.5569512,26.1191579 56.3916098,32.2105263 65.6163171,32.2105263 C67.4502195,32.2105263 69.3321951,31.9653684 71.2195122,31.5448421 C59.9169756,28.5188421 55.2307317,16.1052632 55.2307317,16.1052632" id="Fisch" sketch:type="MSShapeGroup"></path>
            </g>
        </g>
    </g>
</svg>