<?xml version="1.0" encoding="UTF-8" standalone="no"?>
<svg width="94px" height="44px" viewBox="0 0 94 44" version="1.1" xmlns="http://www.w3.org/2000/svg" xmlns:xlink="http://www.w3.org/1999/xlink" xmlns:sketch="http://www.bohemiancoding.com/sketch/ns">
    <!-- Generator: Sketch 3.3.2 (12043) - http://www.bohemiancoding.com/sketch -->
    <title>Hylonomus 2</title>
    <desc>Created with Sketch.</desc>
    <defs></defs>
    <g id="Page-1" stroke="none" stroke-width="1" fill="none" fill-rule="evenodd" sketch:type="MSPage">
        <g id="Startscreen-2-Copy-16" sketch:type="MSArtboardGroup" transform="translate(-636.000000, -972.000000)" fill="#4A4A4A">
            <g id="Hylonomus-2" sketch:type="MSLayerGroup" transform="translate(636.000000, 972.000000)">
                <path d="M7.2690827,14.5691074 C7.2690827,14.5691074 4.50357506,15.5528472 2.95807125,16.6185057 C2.95807125,16.6185057 -2.57258906,19.8151236 2.95807125,21.3726521 L3.28357125,21.3726521 L14.9142506,21.7758066 C14.9142506,21.7758066 20.1201209,21.208457 22.397201,22.8479041 C22.397201,22.8479041 26.6265712,25.7987659 29.3107926,25.7168472 L29.7985102,29.1595789 L28.0907888,30.3890749 C28.0907888,30.3890749 23.6984911,30.3890749 22.2346285,31.7008472 C22.2346285,31.7008472 24.0239911,30.8809448 24.9184949,31.3728147 C24.9184949,31.3728147 22.1529873,32.3569123 21.9904148,33.0941805 C21.9904148,33.0941805 25.2439949,31.4543757 26.0572125,32.2742781 C26.0572125,32.2742781 23.2917048,33.6679692 22.8852735,34.5694326 C22.8852735,34.5694326 26.7891438,32.1927171 27.4397888,32.766148 C27.4397888,32.766148 25.1627087,36.4546358 25.2439949,36.864587 C25.2439949,36.864587 28.0907888,32.1927171 28.9852926,32.1927171 L29.3920789,32.4381155 C29.3920789,32.4381155 28.1720751,35.470896 28.2533613,36.2907984 C28.2533613,36.2907984 29.9614377,32.2742781 30.5307964,32.5203919 C30.5307964,32.5203919 32.9704491,31.8646846 33.0520903,28.9134651 L33.7843766,25.5122293 C33.7843766,25.5122293 49.9699262,26.4544732 52.6537926,26.6186683 L64.8541858,28.0942781 C64.8541858,28.0942781 66.7248346,29.5698879 70.3035598,29.9798391 C70.3035598,29.9798391 79.006159,35.307774 79.1690865,35.799644 L79.7384453,36.864587 C79.7384453,36.864587 80.9584491,41.2091399 82.2597392,42.0290423 C82.2597392,42.0290423 80.1601399,37.9306033 80.8437964,37.6848472 C80.8437964,37.6848472 84.4555331,41.9471236 84.5371743,42.7666683 L82.1784529,36.8649448 C82.1784529,36.8649448 86.4891094,41.783644 86.5703957,43.6688472 C86.5703957,43.6688472 85.8384644,38.7508635 83.3168155,36.2095952 C83.3168155,36.2095952 89.905617,37.3568147 93.3214148,41.2914163 C93.3214148,41.2914163 90.9626934,36.7014651 85.6758919,35.5538879 C85.6758919,35.5538879 87.5465407,35.6361643 88.4413995,35.9634814 C88.4413995,35.9634814 86.4891094,34.0782781 82.503598,34.0782781 C82.503598,34.0782781 75.2648613,27.6024082 71.8487087,26.8651399 C71.8487087,26.8651399 79.331659,25.3076114 84.4555331,20.8814976 C89.5797621,16.4550261 92.3452697,10.3919692 84.5371743,4.81577404 C76.7290789,-0.760778805 61.2754606,-1.74094141 44.9269835,3.17704233 C28.5785064,8.09502607 39.4783193,7.27548136 24.6749911,9.57063583 C24.6749911,9.57063583 26.7898537,10.1440667 34.3540903,8.50497729 C41.918327,6.86553014 41.7553995,4.65229437 56.0703003,3.09512363 C70.385201,1.53759518 80.7145903,5.06260331 83.2362392,10.3901805 C85.7575331,15.7181155 72.7439224,19.8984732 66.4813308,18.01327 C66.4813308,18.01327 63.7971094,13.9967497 59.2425941,16.1280667 C59.2425941,16.1280667 44.0331896,12.4406521 25.6511361,13.5048797 L15.6468919,13.8329123 L10.2784491,14.1595139 L7.2690827,14.5691074 Z" id="Hylonomus" sketch:type="MSShapeGroup"></path>
            </g>
        </g>
    </g>
</svg>