<?xml version="1.0" encoding="UTF-8" standalone="no"?>
<svg width="93px" height="38px" viewBox="0 0 93 38" version="1.1" xmlns="http://www.w3.org/2000/svg" xmlns:xlink="http://www.w3.org/1999/xlink" xmlns:sketch="http://www.bohemiancoding.com/sketch/ns">
    <!-- Generator: Sketch 3.3.2 (12043) - http://www.bohemiancoding.com/sketch -->
    <title>Ichthyostega 2</title>
    <desc>Created with Sketch.</desc>
    <defs></defs>
    <g id="Page-1" stroke="none" stroke-width="1" fill="none" fill-rule="evenodd" sketch:type="MSPage">
        <g id="Startscreen-2-Copy-16" sketch:type="MSArtboardGroup" transform="translate(-740.000000, -974.000000)" fill="#4A4A4A">
            <g id="Ichthyostega-2" sketch:type="MSLayerGroup" transform="translate(740.000000, 974.000000)">
                <path d="M8.91442721,0.848956346 C8.91442721,0.848956346 -0.66926187,-1.80827282 0.0372255251,2.27949801 L0.440486029,3.40366468 L6.99776754,6.36726885 C6.99776754,6.36726885 9.82254485,8.00206051 6.59411628,7.79781051 L3.46689359,7.81562301 L1.04576754,7.28678968 C1.04576754,7.28678968 -0.971707248,6.67364385 0.84413729,8.92197718 C0.84413729,8.92197718 1.24739779,10.3525188 5.58518351,10.0461438 C5.58518351,10.0461438 7.30060368,10.4546438 7.70386418,10.9656647 C7.70386418,10.9656647 9.21726334,11.8851855 12.0416499,11.3741647 C12.0416499,11.3741647 17.4891835,13.316123 18.5989314,15.4619355 L21.0200575,18.8348313 L21.5241331,19.6518313 C21.5241331,19.6518313 22.3314356,25.0680188 23.1383474,26.1921855 C23.1383474,26.1921855 24.0460743,27.7248522 21.9277843,28.9511438 C21.9277843,28.9511438 19.4058432,32.118998 18.9013768,33.0385188 C18.9013768,33.0385188 18.3969104,33.8563105 17.4891835,33.8563105 C17.4891835,33.8563105 14.6644062,35.0822063 16.7830869,35.899998 L21.7261541,35.899998 L22.7350869,34.6737063 C22.7350869,34.6737063 25.3578432,33.2427688 25.9631247,30.9948313 L28.2834356,25.5786438 C28.2834356,25.5786438 30.1997045,24.863373 30.3009104,26.2939147 C30.3009104,26.2939147 29.5948138,30.9948313 27.8797843,33.2431647 L27.1736877,34.0605605 L27.4761331,34.4694563 L31.3098432,34.5719772 C31.3098432,34.5719772 33.0244818,33.2431647 33.8317843,27.2138313 C33.8317843,27.2138313 41.0947717,28.8490188 45.7353936,27.6227272 C45.7353936,27.6227272 48.4593558,27.1117063 48.4593558,28.542248 C48.4593558,28.542248 49.2662675,33.4474147 47.8536835,35.3889772 C47.8536835,35.3889772 45.8362087,36.6152688 46.7439356,37.6373105 L48.0557045,37.6373105 C48.0557045,37.6373105 50.6784608,38.6593522 53.200402,35.593623 C53.200402,35.593623 53.5032381,29.4621647 54.1085196,29.3596438 C54.1085196,29.3596438 57.7402087,33.4478105 56.1259944,34.9804772 L55.4198978,36.104248 L58.6479356,36.104248 C58.6479356,36.104248 61.0690617,35.5932272 59.7576835,32.118998 L58.7487507,25.5786438 C58.7487507,25.5786438 65.910923,21.4912688 66.6174104,21.184498 C67.323507,20.878123 76.9075869,16.3814563 92.5433096,21.3891438 C92.5433096,21.3891438 80.6397003,12.907623 64.7007507,13.111873 C64.7007507,13.111873 59.152402,13.3165188 54.612986,11.4770813 C50.0735701,9.63764385 34.537881,9.12662301 31.8143096,9.63764385 C29.0907381,10.1482688 25.8627003,9.84189385 23.037923,5.95876885 C20.2131457,2.07524801 15.1692633,1.97312301 14.4631667,1.15572718 L10.125381,1.15572718 L8.91442721,0.848956346" id="Ichthyostega" sketch:type="MSShapeGroup"></path>
            </g>
        </g>
    </g>
</svg>