<?xml version="1.0" encoding="UTF-8" standalone="no"?>
<svg width="91px" height="34px" viewBox="0 0 91 34" version="1.1" xmlns="http://www.w3.org/2000/svg" xmlns:xlink="http://www.w3.org/1999/xlink" xmlns:sketch="http://www.bohemiancoding.com/sketch/ns">
    <!-- Generator: Sketch 3.3.2 (12043) - http://www.bohemiancoding.com/sketch -->
    <title>Triconodon 2</title>
    <desc>Created with Sketch.</desc>
    <defs></defs>
    <g id="Page-1" stroke="none" stroke-width="1" fill="none" fill-rule="evenodd" sketch:type="MSPage">
        <g id="Startscreen-2-Copy-16" sketch:type="MSArtboardGroup" transform="translate(-859.000000, -975.000000)" fill="#4A4A4A">
            <g id="Triconodon-2" sketch:type="MSLayerGroup" transform="translate(858.361515, 975.117108)">
                <path d="M90.5747293,26.3755657 C87.9506764,24.9465117 85.8884578,22.8973659 84.2899607,20.4463514 C82.5061909,17.7107249 80.6045625,15.0849783 77.9897655,13.1148231 C77.8075782,12.9775884 77.6101186,12.862176 77.4018604,12.7612094 C77.2400361,12.6182886 77.0782118,12.4745995 76.9165417,12.3316787 C76.8102529,12.2376276 76.6806701,12.2702074 76.603846,12.349198 C76.5924303,12.3372111 76.5799348,12.3266073 76.5646626,12.3161572 C76.1749884,12.048296 75.7860856,11.7805885 75.3965657,11.5127273 C75.246774,11.4100702 75.1040786,11.5290172 75.0814016,11.6696328 C74.8861018,11.5051971 74.6911104,11.3403003 74.4959648,11.1761719 C74.39199,11.088268 74.2654924,11.1163911 74.1874342,11.1887736 C73.9930599,10.9956 73.7985313,10.8018117 73.6040028,10.6086382 C73.4040749,10.4093175 73.0936931,10.7185181 73.2937752,10.9178388 C73.3542472,10.9780807 73.4139479,11.0375542 73.4745742,11.097796 C73.3675141,11.0238768 73.2592198,10.9518017 73.1498457,10.8832612 C72.6730117,10.5868158 72.3032377,9.95150995 71.6795431,10.0970433 C71.4918022,9.92968763 71.3042156,9.76156363 71.1167832,9.59420801 C70.9074452,9.40672054 70.595675,9.71469176 70.80671,9.90340865 C70.9518736,10.0338815 71.0979629,10.1635859 71.2438978,10.2940588 C71.1825002,10.2940588 71.0621733,10.208921 70.9745506,10.1743434 C70.2339229,9.8797422 69.5224513,9.71853372 68.670444,9.69840187 C68.1814229,9.68656864 67.6948702,9.52428441 67.20986,9.31036428 C66.8624546,8.93415992 66.5150491,8.55857027 66.1682607,8.18236591 C65.9765089,7.97474659 65.667207,8.28456195 65.8580331,8.49156656 C65.9492039,8.58992064 66.0399119,8.68904311 66.131237,8.78770455 C65.954449,8.7004153 65.7775067,8.61573858 65.6007186,8.53920681 C65.2776871,8.39874489 65.002632,8.14917141 64.679909,7.93217772 C64.614809,8.26765734 64.5651356,8.51661611 64.5023496,8.68781368 C64.490934,8.67598046 64.4816781,8.66337884 64.4759703,8.6495478 C64.4318504,8.53920681 64.3311151,8.46267504 64.206006,8.49725265 C64.1043451,8.52491474 64.017648,8.64447642 64.0489639,8.75174384 C63.7992083,8.52168749 63.5488358,8.29147747 63.2987717,8.06142113 C63.0911306,7.8708601 62.7807488,8.17867763 62.9886984,8.37062177 C63.0294245,8.40827294 63.0695334,8.4453094 63.1107223,8.48280689 C63.0426913,8.44331158 62.9726548,8.40197213 62.8979904,8.35740544 C62.8986075,8.39198305 62.895985,8.41964513 62.8952136,8.45084182 C61.7119987,8.08585597 60.5843193,7.59746649 59.5052335,6.9812167 C59.356059,6.89592527 59.2178372,7.00196326 59.1855958,7.12982357 C58.943245,7.06143675 58.7487164,7.40629074 58.9960037,7.51417287 C59.4015672,7.69028815 59.8068222,7.86717182 60.2126942,8.0432871 C60.4481031,8.17053269 60.6808894,8.30162024 60.9144471,8.43270778 C60.507958,8.29670253 60.102086,8.1605436 59.6959054,8.02515306 C59.6752339,8.01823754 59.6570306,8.01962064 59.6374389,8.01823754 C58.8658038,7.67784021 58.1233249,7.27028549 57.4112362,6.79004095 C57.1764444,6.63129132 56.9573877,7.00995453 57.189557,7.16747474 C57.4615267,7.35096657 57.7402841,7.52093472 58.0213555,7.68398734 C57.2208728,7.41627983 56.4205444,7.14872599 55.6205245,6.88025009 C55.3519486,6.79065567 55.2374838,7.21280982 55.5042085,7.30178953 C56.4257894,7.6100681 57.3464448,7.91865403 58.2677172,8.22708628 C56.856961,7.92802841 55.4455877,7.63081467 54.0288151,7.36126301 C53.8685334,7.33052736 53.7085603,7.30670723 53.5485872,7.28411653 C53.5172713,7.21957167 53.4572621,7.16993359 53.363006,7.17070198 C52.9986314,7.17316083 52.6347195,7.17638808 52.269882,7.17884693 C52.0714969,7.17515865 51.873883,7.17700279 51.6775033,7.1833036 C50.3141065,7.19344636 48.9516353,7.20328177 47.5888555,7.21342454 C47.3062415,7.21526868 47.3062415,7.65232962 47.5888555,7.65048548 C47.9621776,7.64802663 48.334574,7.64479939 48.7078961,7.64234054 C48.6460357,7.65863043 48.5846381,7.67707182 48.5233948,7.69366907 L46.6391983,7.69366907 C46.4300145,7.69366907 46.3772558,7.9301799 46.4767569,8.05496664 C46.4368022,8.03667893 46.3916025,8.02730456 46.3380724,8.03913778 C46.2033988,8.06987343 46.0681081,8.10060908 45.9334345,8.13149841 C45.5544047,8.18912776 45.1812369,8.27365079 44.8142397,8.38660431 C43.7897638,8.62034893 42.7649794,8.85424723 41.7397321,9.08829921 C41.46406,9.15084626 41.5809931,9.5723857 41.8562024,9.50953129 L42.7814858,9.2982237 C42.1096603,9.60865377 41.4382977,9.91893016 40.7666266,10.2288992 C40.5103919,10.3472314 40.7333053,10.7234358 40.9883058,10.606333 C41.3569999,10.4357501 41.7252312,10.265782 42.0940795,10.0951991 C41.4230254,10.6193956 40.8548663,11.2785216 40.4247746,12.0472203 C40.2870157,12.2935665 40.6658913,12.5136338 40.8038045,12.2677486 C40.9580698,11.9918961 41.1340865,11.7354071 41.3236786,11.4921344 C41.3839963,11.596943 41.5282344,11.6576459 41.6504125,11.5723545 C40.9580698,12.3015578 40.2655728,13.0307611 39.5733844,13.7601181 C39.3787016,13.9643565 39.6884663,14.2741718 39.8837662,14.069165 C40.3789578,13.5474274 40.8749208,13.0252287 41.3702667,12.503491 C40.9605381,13.2534409 40.5961634,14.0402735 40.1796471,14.7857667 C39.9706176,15.1590512 39.7319691,15.5157384 39.5036565,15.8848736 C39.9479406,15.9677061 40.377878,16.0486946 41.0637415,16.1765549 C40.4489943,16.9719935 39.9781766,17.5819425 39.4211246,18.3037692 C39.7484755,18.4749668 40.1423149,18.681203 40.6666626,18.9559797 C40.6358096,18.9861007 40.5551288,19.0655523 40.5097748,19.1159588 C40.4335678,19.2017113 40.3209541,19.3295716 40.1742478,19.4964662 C39.9032036,19.8070499 39.5180032,20.2456476 39.0018314,20.7786038 C38.4855055,21.3098695 37.8405222,21.9347253 37.0529978,22.576793 C36.2662447,23.2170166 35.3347908,23.8779868 34.2572476,24.415246 C33.1821727,24.9471264 31.9529867,25.3476119 30.6570039,25.3589841 C30.0095524,25.3691269 29.3503767,25.2680066 28.6933608,25.0699153 C28.038196,24.8636791 27.3905903,24.5440283 26.7681297,24.1301728 C25.5193521,23.3016933 24.3998487,22.0867131 23.4287486,20.7140589 C22.9414245,20.0268098 22.4840279,19.3009874 22.0641177,18.5421242 C21.845678,18.1683787 21.6531549,17.7768065 21.4479821,17.3923035 C21.25839,16.9979651 21.0558397,16.6103886 20.877509,16.20852 L20.603071,15.6097895 L20.3432882,15.0035288 C20.1651118,14.590288 19.9869353,14.1776619 19.8089132,13.7665725 C19.6301197,13.3568663 19.4519432,12.9480822 19.2745381,12.5405275 C19.0780041,12.1317433 18.8830128,11.7241886 18.6877129,11.318478 C18.5896002,11.1159301 18.4921045,10.9146115 18.3946088,10.712832 C18.2892456,10.5159702 18.184808,10.319723 18.0799076,10.1234759 C17.8677928,9.73344051 17.6701789,9.33910211 17.449271,8.9590558 C17.2238894,8.58162201 17.0005132,8.20603236 16.7782169,7.83290157 C16.5574633,7.45992445 16.3016914,7.10876965 16.0690593,6.75069932 C15.1008902,5.33931826 14.0339914,4.04842094 12.8399779,3.00371619 C11.649821,1.96223868 10.3276131,1.16403384 8.98118548,0.787829477 C8.64133901,0.70760943 8.31460509,0.611099488 7.98123776,0.579749124 C7.81571108,0.560846699 7.6546581,0.525808058 7.49206246,0.521505067 C7.3296211,0.515204258 7.16980224,0.509518163 7.01198883,0.503985746 C6.85386689,0.491384129 6.69836746,0.512130693 6.54487347,0.518431502 C6.39199655,0.531647831 6.2397367,0.528420588 6.09241333,0.554084856 C5.79730379,0.599880975 5.51067885,0.634304904 5.24071456,0.710375638 C4.15083016,0.966557284 3.28015677,1.41499042 2.61234225,1.83576148 C1.94452773,2.25392 1.46939058,2.65532759 1.15900878,2.939325 C0.848781249,3.22378344 0.702074941,3.39421263 0.702074941,3.39421263 C0.702074941,3.39421263 0.858345698,3.23238943 1.18291991,2.96591134 C1.5084197,2.70127739 2.00314855,2.3295297 2.68608106,1.95132752 C3.36639107,1.57466213 4.24431494,1.18708557 5.30427187,1.00098121 C5.56667716,0.943351868 5.84373765,0.926139903 6.12573463,0.898016783 C6.26673312,0.880497463 6.41143398,0.893099079 6.5567519,0.88864241 C6.70222409,0.891101262 6.85016452,0.879421715 6.99872201,0.899860922 C7.1472795,0.913691965 7.29753391,0.928137721 7.44933097,0.942583476 C7.60159083,0.955185093 7.75138245,0.997753969 7.90564775,1.02341824 C8.21464117,1.06921436 8.51669264,1.17894063 8.8281543,1.2709939 C10.0632023,1.69360909 11.2550561,2.50810383 12.322572,3.55603582 C13.3933275,4.60673403 14.3423677,5.89594088 15.1940665,7.30532413 C15.3992393,7.66385549 15.6240039,8.01193673 15.8172983,8.38568224 C16.0110556,8.75742993 16.2060469,9.13240486 16.4025809,9.50922394 C16.5952583,9.88788715 16.7649501,10.2831476 16.9489886,10.6716462 C17.0396966,10.8666639 17.1296333,11.0622963 17.2203413,11.2585435 C17.302719,11.4572495 17.385868,11.6567238 17.4682457,11.8568129 C17.6323839,12.2562227 17.7980649,12.6574766 17.9635916,13.0593452 C18.1172398,13.4756596 18.2719679,13.8925887 18.4262332,14.3109009 C18.5783388,14.72783 18.73137,15.1462959 18.8844012,15.5643007 L19.1170333,16.2069832 L19.3664803,16.8453626 C19.5270705,17.2728955 19.7157369,17.6918224 19.890828,18.1150524 C20.0825798,18.5319815 20.2619904,18.9545966 20.4704028,19.3649176 C20.8688701,20.1930897 21.314234,21.0017446 21.8040264,21.7838133 C22.7820684,23.3428791 23.9598841,24.8141947 25.4584173,25.9443446 C26.2055242,26.506807 27.0286838,26.9796749 27.9035224,27.3117736 C28.7803664,27.6368031 29.6985535,27.8310525 30.5960691,27.8699331 C31.4931219,27.9114262 32.3653379,27.8259811 33.1710656,27.6466386 C33.978336,27.4692939 34.7294537,27.2191057 35.4148545,26.9243508 C36.7873529,26.3349947 37.9230541,25.6163952 38.8734827,24.9317586 C39.8232942,24.2435874 40.5892215,23.5812341 41.2002663,23.0207695 C41.6470187,22.6092191 42.0109305,22.2511488 42.2916934,21.9683808 C42.5861859,21.8655701 43.015969,21.8918491 43.288093,22.0367677 C43.3422401,22.0656592 43.3948446,22.0956264 43.4485289,22.1245179 C43.3925306,22.1196002 43.335761,22.1182171 43.2789914,22.1219054 C42.998537,22.1400394 42.9963773,22.5764857 43.2789914,22.55912 C43.5202623,22.5439059 43.7348454,22.634115 43.8832486,22.8079251 C43.4636469,22.7281661 43.0445081,22.6404158 42.6284546,22.5357609 C42.3538623,22.4667594 42.237392,22.8881452 42.5119843,22.9571467 C43.4315598,23.1882788 44.3597741,23.3545587 45.2969359,23.4659754 C45.3191501,23.4710468 45.3405929,23.478577 45.3617273,23.48288 C45.2870629,23.602749 45.3442953,23.8183596 45.5368184,23.841104 C45.9200134,23.885517 46.3027457,23.9305448 46.6859407,23.9758798 C46.7004416,23.9838711 46.7143255,23.9918624 46.7286722,24.000161 L45.1773802,24.000161 C44.8947662,24.000161 44.8947662,24.4373756 45.1773802,24.4373756 L47.2078202,24.4373756 C46.6425921,24.81358 46.1096055,25.2704654 45.4920815,25.5189632 C43.7931576,26.2014483 43.5992461,26.5326249 44.3665618,28.1809778 C44.824884,29.1660554 45.2646944,30.1829444 45.8873092,31.0633671 C47.1556786,32.8567923 48.9658277,33.6324065 51.1710503,33.4816481 C51.9621227,33.427707 52.7573604,33.4220209 53.5470445,33.3531731 C53.8106839,33.3301213 54.0638333,33.1776725 54.4201862,33.0491975 C53.6434603,32.0358431 52.7798831,31.5147202 51.6016047,31.4577055 C50.0685161,31.3833252 48.6597653,31.0639818 47.7736654,29.5734565 C46.8457596,28.0137759 47.0504696,27.3514226 48.8815988,26.7591467 C48.9331234,26.9918155 48.9827969,27.2178762 49.0358641,27.4593048 C49.3579701,27.4995685 49.6745225,27.5133995 49.9879896,27.5127848 L49.0665629,27.8676279 C48.8053918,27.9679798 48.9192396,28.390595 49.182879,28.2890136 L50.9711224,27.5999204 C50.9364127,27.7403823 51.0473295,27.9223373 51.2347618,27.8788464 C52.1242556,27.6726102 52.9765714,27.3853855 53.7944861,27.0242416 C53.7974171,27.1665477 53.9513739,27.3151546 54.1246138,27.2312462 C55.2556871,26.6787729 56.3867603,26.1264533 57.5181421,25.5733653 C57.044239,25.8555185 56.569719,26.1370571 56.0955074,26.4192104 C55.8534651,26.5633606 56.0736017,26.9411017 56.3174952,26.7966441 C56.9041662,26.4477945 57.4905286,26.0994059 58.0770453,25.7508636 C58.1352033,26.7565341 58.1659021,27.7529839 58.2837608,28.7380615 C58.4566922,30.1824834 59.9547626,30.282989 60.8484215,30.7211257 C61.644122,31.1111611 62.9024641,30.5642202 64.0193449,30.4234509 C63.9846352,30.2665454 63.9377386,30.0495517 63.8626114,29.7103838 C64.2687919,29.8786615 64.5776311,30.0059071 65.042741,30.1983122 C64.4832207,29.111807 63.8191086,28.5622536 62.7196597,28.6879624 C62.4677445,28.7167002 62.1794226,28.7543514 61.9591318,28.6633739 C61.4434228,28.4514516 60.6255082,28.2570486 60.5223047,27.8903723 C60.1471315,26.5529104 60.5165969,26.038703 61.5520256,25.5521577 C61.7129243,25.4763943 61.8718176,25.406778 62.0297853,25.3434626 C61.7308191,25.5177337 61.4465081,25.7236626 61.1851827,25.9667816 C60.9778501,26.1591868 61.2886947,26.4677727 61.4955645,26.2758286 C62.0563189,25.7542446 62.7176543,25.4187649 63.4346794,25.2658551 C63.0926732,25.424451 62.7585346,25.6031788 62.4338061,25.8058805 C62.1953119,25.955102 62.41514,26.3331505 62.6556396,26.1831606 C62.9407219,26.0052012 63.2325919,25.8470662 63.530941,25.7047602 C63.5789175,25.7551666 63.6475656,25.7863633 63.7342627,25.7662315 C63.9741452,25.7116757 64.2137192,25.6571199 64.4543731,25.6025641 L64.2220496,25.6827842 C63.9562504,25.7743764 64.0710238,26.1969916 64.3383656,26.1041699 C64.2823673,26.260307 64.458384,26.4722294 64.657232,26.3731069 C65.0265431,26.1894614 65.3952372,26.0058159 65.7647026,25.8220167 C65.6531688,25.887791 65.5417893,25.9535653 65.430564,26.0194932 C65.1874419,26.1630287 65.4080412,26.5406162 65.652089,26.3970807 C66.133551,26.1129296 66.614396,25.8295469 67.095858,25.5453958 C67.9416947,25.6225423 68.8746912,26.1393623 69.6578962,27.046986 C70.2371624,27.7179453 70.9063653,28.0873878 71.7501966,28.3932075 C72.6407702,28.7162392 73.3525503,29.4998446 74.1880512,30.0085196 C75.5239888,30.8211702 76.8389463,31.7140408 78.2745392,32.3013991 C79.2678536,32.7084928 80.4478289,32.6745299 81.5486661,32.7968578 C81.7268426,32.816836 82.0470973,32.6669997 82.1018615,32.5217737 C82.6817448,30.9771536 83.5740154,31.7460059 84.4264855,32.1810691 C84.5434186,32.2408499 84.6578834,32.3041653 84.8229473,32.2757349 C83.9485715,31.3804054 82.9811738,30.3947131 81.6563433,30.6347585 C78.8069088,31.1508101 76.7488553,28.8491709 76.2586002,26.0068916 C76.2434822,25.9185266 76.2228106,25.8301616 76.2001336,25.7404135 C76.2805059,25.8721158 76.4827477,25.9254421 76.5665138,25.7494805 C76.6081654,25.6609619 76.6584559,25.5781293 76.7122945,25.498524 C76.7999172,25.6094797 76.9853441,25.644672 77.0711156,25.4846929 C77.1001175,25.4301371 77.1346729,25.3798843 77.1716966,25.3325514 C77.1988473,25.4954504 77.4604812,25.5924214 77.5854361,25.4107737 C77.6351095,25.3385449 77.692959,25.2759978 77.7558993,25.2202126 C77.8311807,25.3067335 77.967397,25.3462288 78.0761541,25.2452622 C78.2373613,25.0960406 78.4524071,25.0408701 78.6657561,25.0921987 C78.6688414,25.092967 78.6714639,25.0921987 78.6751662,25.092967 C78.816319,25.1701135 78.9573175,25.2646257 79.098316,25.3869535 C79.3644236,25.6177783 79.7931269,25.7118294 80.1624381,25.7671535 C81.3387111,25.9426541 82.5367354,26.0002834 83.7003586,26.2321839 C85.8221237,26.6560285 87.9198233,27.2009716 90.0414341,27.6235868 C90.4246292,27.7001186 90.8772436,27.4324111 91.2979251,27.3240679 C91.0603565,27.0010362 90.89375,26.5490685 90.5747293,26.3755657 L90.5747293,26.3755657 Z" id="Triconodon" sketch:type="MSShapeGroup"></path>
            </g>
        </g>
    </g>
</svg>