<?xml version="1.0" encoding="UTF-8" standalone="no"?>
<svg width="39px" height="60px" viewBox="0 0 39 60" version="1.1" xmlns="http://www.w3.org/2000/svg" xmlns:xlink="http://www.w3.org/1999/xlink" xmlns:sketch="http://www.bohemiancoding.com/sketch/ns">
    <!-- Generator: Sketch 3.3.2 (12043) - http://www.bohemiancoding.com/sketch -->
    <title>Trilobit2</title>
    <desc>Created with Sketch.</desc>
    <defs></defs>
    <g id="Page-1" stroke="none" stroke-width="1" fill="none" fill-rule="evenodd" sketch:type="MSPage">
        <g id="Startscreen-2-Copy-16" sketch:type="MSArtboardGroup" transform="translate(-166.000000, -962.000000)" fill="#4A4A4A">
            <g id="Trilobit2" sketch:type="MSLayerGroup" transform="translate(166.000000, 962.000000)">
                <path id="Fill-2" sketch:type="MSShapeGroup" d="M0.288117312,23.0575522 C0.291504431,22.7830518 0.299125448,22.5131195 0.309286805,22.2452636 C0.281343074,22.775992 0.288117312,23.0745787 0.288117312,23.0575522"></path>
                <path d="M21.4330544,1.05267105 L19.6747162,0.920196581 L17.9159547,1.05267105 C17.9159547,1.05267105 1.01465433,3.63156272 0.309286805,22.2452636 C0.502775977,18.6265097 2.34409854,4.13945073 19.2513264,4.13945073 L20.0981061,4.13945073 C37.0049105,4.13945073 38.8462331,18.6265097 39.0397223,22.2452636 C38.3343547,3.63156272 21.4330544,1.05267105 21.4330544,1.05267105" id="Fill-3" sketch:type="MSShapeGroup"></path>
                <path d="M19.6747162,5.13529328 L18.8279365,5.13529328 C18.8279365,5.13529328 14.091474,3.64194473 14.091474,11.1091027 C14.091474,11.1091027 15.7155975,14.6938037 15.0051493,17.3819141 C15.0051493,17.3819141 13.1676373,20.7739249 18.8279365,19.3731839 L19.6747162,19.3731839 C25.3345921,20.7739249 23.4975034,17.3819141 23.4975034,17.3819141 C22.7866318,14.6938037 24.4107554,11.1091027 24.4107554,11.1091027 C24.4107554,3.64194473 19.6747162,5.13529328 19.6747162,5.13529328" id="Fill-4" sketch:type="MSShapeGroup"></path>
                <path d="M4.04146854,20.6680284 C4.04146854,20.6680284 4.53429435,19.4491803 7.43493838,19.7099764 C7.43493838,19.7099764 13.3810258,21.6634557 14.091474,15.3906443 C14.091474,15.3906443 12.3657368,11.8063586 13.0761851,9.51608687 L13.6854431,6.52897451 C13.6854431,6.52897451 0.691607861,8.22165767 1.19925232,24.2523141 C1.19925232,24.2523141 2.92498944,21.364869 4.04146854,20.6680284" id="Fill-5" sketch:type="MSShapeGroup"></path>
                <path d="M3.1485393,25.0446692 C3.1485393,25.0446692 6.07755044,22.9670211 14.091474,21.7552327 C14.091474,21.7552327 13.4906837,20.9242565 14.091474,20.3702723 C14.091474,20.3702723 6.60848135,21.5475924 3.1485393,25.0446692" id="Fill-6" sketch:type="MSShapeGroup"></path>
                <path d="M3.1485393,27.3818676 C3.1485393,27.3818676 6.07755044,25.3042195 14.091474,24.0924311 C14.091474,24.0924311 13.4906837,23.2614549 14.091474,22.7074708 C14.091474,22.7074708 6.60848135,23.8847909 3.1485393,27.3818676" id="Fill-7" sketch:type="MSShapeGroup"></path>
                <path d="M3.1485393,29.4939841 C3.1485393,29.4939841 6.07755044,27.4163359 14.091474,26.2045475 C14.091474,26.2045475 13.4906837,25.3735713 14.091474,24.8195872 C14.091474,24.8195872 6.60848135,25.9969073 3.1485393,29.4939841" id="Fill-8" sketch:type="MSShapeGroup"></path>
                <path d="M3.1485393,31.8311825 C3.1485393,31.8311825 6.07755044,29.7535344 14.091474,28.541746 C14.091474,28.541746 13.4906837,27.7107698 14.091474,27.1567856 C14.091474,27.1567856 6.60848135,28.3341057 3.1485393,31.8311825" id="Fill-9" sketch:type="MSShapeGroup"></path>
                <path d="M3.1485393,34.3589947 C3.1485393,34.3589947 6.07755044,32.2813465 14.091474,31.0695582 C14.091474,31.0695582 13.4906837,30.2385819 14.091474,29.6845978 C14.091474,29.6845978 6.60848135,30.8615026 3.1485393,34.3589947" id="Fill-10" sketch:type="MSShapeGroup"></path>
                <path d="M3.1485393,36.6961931 C3.1485393,36.6961931 6.07755044,34.618545 14.091474,33.4067566 C14.091474,33.4067566 13.4906837,32.5757804 14.091474,32.0217963 C14.091474,32.0217963 6.60848135,33.1987011 3.1485393,36.6961931" id="Fill-11" sketch:type="MSShapeGroup"></path>
                <path d="M14.091474,34.168381 C14.091474,34.168381 6.60848135,35.3457011 3.1485393,38.8427779 C3.1485393,38.8427779 6.07755044,36.7651297 14.091474,35.5533413 C14.091474,35.5533413 13.4906837,34.7223651 14.091474,34.168381" id="Fill-12" sketch:type="MSShapeGroup"></path>
                <path d="M3.81918886,41.1467539 C3.81918886,41.1467539 6.07755044,39.2929419 14.091474,38.0811535 C14.091474,38.0811535 13.4906837,37.2501773 14.091474,36.6961931 C14.091474,36.6961931 7.27913091,37.6496771 3.81918886,41.1467539" id="Fill-13" sketch:type="MSShapeGroup"></path>
                <path d="M14.3747218,39.22359 C14.3747218,39.22359 7.27913091,40.5923544 3.81918886,44.0894312 C3.81918886,44.0894312 6.36037488,41.6313862 14.3747218,40.4195978 C14.3747218,40.4195978 13.8099197,39.7962618 14.3747218,39.22359" id="Fill-14" sketch:type="MSShapeGroup"></path>
                <path d="M14.7981117,41.3361217 C14.7981117,41.3361217 8.62000663,42.2551374 5.26675884,46.2019629 C5.26675884,46.2019629 8.23218151,43.5013941 14.7981117,42.7048862 C14.7981117,42.7048862 14.2333096,41.9087935 14.7981117,41.3361217" id="Fill-15" sketch:type="MSShapeGroup"></path>
                <path d="M15.0453714,43.76925 C15.0453714,43.76925 9.85588168,44.6878504 6.50221049,48.6350912 C6.50221049,48.6350912 8.86980666,46.4743869 15.0453714,45.1380144 C15.0453714,45.1380144 14.4805693,44.3415065 15.0453714,43.76925" id="Fill-16" sketch:type="MSShapeGroup"></path>
                <path d="M15.4336199,46.2019629 C15.4336199,46.2019629 10.2441302,47.1209786 6.890459,51.0682194 C6.890459,51.0682194 9.25805517,48.9075151 15.4336199,47.5711426 C15.4336199,47.5711426 14.8688178,46.7746347 15.4336199,46.2019629" id="Fill-17" sketch:type="MSShapeGroup"></path>
                <path id="Fill-18" sketch:type="MSShapeGroup" d="M9.13823584,52.9789248 C8.99682362,53.1591565 8.95533141,53.2667142 8.95533141,53.2667142 C9.014606,53.1682927 9.07642092,53.0736087 9.13823584,52.9789248"></path>
                <path d="M15.8570097,48.6350912 C15.8570097,48.6350912 11.5621429,49.2870815 9.13823584,52.9789248 C9.59888402,52.3929641 11.1328255,51.0262761 15.8570097,50.0042708 C15.8570097,50.0042708 15.2922077,49.2077629 15.8570097,48.6350912" id="Fill-19" sketch:type="MSShapeGroup"></path>
                <path id="Fill-20" sketch:type="MSShapeGroup" d="M9.7043081,54.8510091 C9.85249456,54.6649635 10.0040681,54.4930374 10.1556417,54.3236029 C9.74961082,54.6483523 9.7043081,54.8510091 9.7043081,54.8510091"></path>
                <path d="M16.1745522,50.7816759 C16.1745522,50.7816759 12.9377366,51.2156439 10.1556417,54.3236029 C10.8038516,53.8045024 12.3763216,52.9726956 16.1745522,52.1508556 C16.1745522,52.1508556 15.6101734,51.3543476 16.1745522,50.7816759" id="Fill-21" sketch:type="MSShapeGroup"></path>
                <path id="Fill-22" sketch:type="MSShapeGroup" d="M11.7120229,56.4236762 C11.7607127,56.3115505 11.8199873,56.2077304 11.8767215,56.1018339 C11.6544419,56.315288 11.7120229,56.4236762 11.7120229,56.4236762"></path>
                <path d="M16.8456251,52.8165501 C16.8456251,52.8165501 13.255279,53.5142213 11.8767215,56.1018339 C12.2454941,55.7471844 13.3861064,55.1030844 16.8456251,54.1857298 C16.8456251,54.1857298 16.2803996,53.3892219 16.8456251,52.8165501" id="Fill-23" sketch:type="MSShapeGroup"></path>
                <path id="Fill-24" sketch:type="MSShapeGroup" d="M12.6096094,58.3563915 C12.6540654,58.2048141 12.7107996,58.0598813 12.7734613,57.9182706 C12.4893667,58.2118739 12.6096094,58.3563915 12.6096094,58.3563915"></path>
                <path d="M17.0577434,54.6516745 C17.0577434,54.6516745 13.799335,55.605989 12.7734613,57.9182706 C13.1418105,57.538289 14.1888536,56.9091391 17.0577434,56.0204389 C17.0577434,56.0204389 16.4929413,55.223931 17.0577434,54.6516745" id="Fill-25" sketch:type="MSShapeGroup"></path>
                <path d="M13.78748,60.1670143 C13.8552224,60.0033938 14.3120601,59.3269019 17.4133909,57.873005 C17.4133909,57.873005 16.8485888,57.0764971 17.4133909,56.5042406 C17.4133909,56.5042406 14.4124035,57.7205971 13.78748,60.1670143" id="Fill-26" sketch:type="MSShapeGroup"></path>
                <path d="M23.0893556,19.9558224 C22.5588481,21.0284919 19.6023166,20.8009182 19.6023166,20.8009182 L18.7555368,20.8009182 C18.7555368,20.8009182 15.7990053,21.0284919 15.2689212,19.9558224 C15.2689212,19.9558224 13.3797556,20.3781626 15.069928,21.6784058 C15.069928,21.6784058 16.3625373,22.3607116 18.0192618,21.9383713 C18.0192618,21.9383713 18.3909981,21.483224 18.7555368,21.5808149 L19.6023166,21.5808149 C19.9672786,21.483224 20.3385916,21.9383713 20.3385916,21.9383713 C21.9957395,22.3607116 23.2879254,21.6784058 23.2879254,21.6784058 C24.9780978,20.3781626 23.0893556,19.9558224 23.0893556,19.9558224" id="Fill-27" sketch:type="MSShapeGroup"></path>
                <path d="M23.0893556,22.2755791 C22.5588481,23.3482485 19.6023166,23.1206748 19.6023166,23.1206748 L18.7555368,23.1206748 C18.7555368,23.1206748 15.7990053,23.3482485 15.2689212,22.2755791 C15.2689212,22.2755791 13.3797556,22.6979193 15.069928,23.9981624 C15.069928,23.9981624 16.3625373,24.6808835 18.0192618,24.258128 C18.0192618,24.258128 18.3909981,23.8033959 18.7555368,23.9009868 L19.6023166,23.9009868 C19.9672786,23.8033959 20.3385916,24.258128 20.3385916,24.258128 C21.9957395,24.6808835 23.2879254,23.9981624 23.2879254,23.9981624 C24.9780978,22.6979193 23.0893556,22.2755791 23.0893556,22.2755791" id="Fill-28" sketch:type="MSShapeGroup"></path>
                <path d="M23.0893556,24.2498224 C22.5588481,25.3224918 19.6023166,25.0949181 19.6023166,25.0949181 L18.7555368,25.0949181 C18.7555368,25.0949181 15.7990053,25.3224918 15.2689212,24.2498224 C15.2689212,24.2498224 13.3797556,24.6721626 15.069928,25.9724058 C15.069928,25.9724058 16.3625373,26.6547116 18.0192618,26.2323713 C18.0192618,26.2323713 18.3909981,25.7772239 18.7555368,25.8748149 L19.6023166,25.8748149 C19.9672786,25.7772239 20.3385916,26.2323713 20.3385916,26.2323713 C21.9957395,26.6547116 23.2879254,25.9724058 23.2879254,25.9724058 C24.9780978,24.6721626 23.0893556,24.2498224 23.0893556,24.2498224" id="Fill-29" sketch:type="MSShapeGroup"></path>
                <path d="M23.0893556,26.8121029 C22.5588481,27.8847723 19.6023166,27.6571986 19.6023166,27.6571986 L18.7555368,27.6571986 C18.7555368,27.6571986 15.7990053,27.8847723 15.2689212,26.8121029 C15.2689212,26.8121029 13.3797556,27.2344431 15.069928,28.5342709 C15.069928,28.5342709 16.3625373,29.216992 18.0192618,28.7942365 C18.0192618,28.7942365 18.3909981,28.3395044 18.7555368,28.4370953 L19.6023166,28.4370953 C19.9672786,28.3395044 20.3385916,28.7942365 20.3385916,28.7942365 C21.9957395,29.216992 23.2879254,28.5342709 23.2879254,28.5342709 C24.9780978,27.2344431 23.0893556,26.8121029 23.0893556,26.8121029" id="Fill-30" sketch:type="MSShapeGroup"></path>
                <path d="M23.0893556,29.2356796 C22.5588481,30.3083491 19.6023166,30.0807754 19.6023166,30.0807754 L18.7555368,30.0807754 C18.7555368,30.0807754 15.7990053,30.3083491 15.2689212,29.2356796 C15.2689212,29.2356796 13.3797556,29.6580199 15.069928,30.958263 C15.069928,30.958263 16.3625373,31.6405688 18.0192618,31.2182286 C18.0192618,31.2182286 18.3909981,30.7634965 18.7555368,30.8610874 L19.6023166,30.8610874 C19.9672786,30.7634965 20.3385916,31.2182286 20.3385916,31.2182286 C21.9957395,31.6405688 23.2879254,30.958263 23.2879254,30.958263 C24.9780978,29.6580199 23.0893556,29.2356796 23.0893556,29.2356796" id="Fill-31" sketch:type="MSShapeGroup"></path>
                <path d="M23.0893556,31.5899046 C22.5588481,32.662574 19.6023166,32.4354156 19.6023166,32.4354156 L18.7555368,32.4354156 C18.7555368,32.4354156 15.7990053,32.662574 15.2689212,31.5899046 C15.2689212,31.5899046 13.3797556,32.0122448 15.069928,33.3124879 C15.069928,33.3124879 16.3625373,33.995209 18.0192618,33.5724535 C18.0192618,33.5724535 18.3909981,33.1177214 18.7555368,33.2153123 L19.6023166,33.2153123 C19.9672786,33.1177214 20.3385916,33.5724535 20.3385916,33.5724535 C21.9957395,33.995209 23.2879254,33.3124879 23.2879254,33.3124879 C24.9780978,32.0122448 23.0893556,31.5899046 23.0893556,31.5899046" id="Fill-32" sketch:type="MSShapeGroup"></path>
                <path d="M23.0893556,33.9794284 C22.5588481,35.0520978 19.6023166,34.8245241 19.6023166,34.8245241 L18.7555368,34.8245241 C18.7555368,34.8245241 15.7990053,35.0520978 15.2689212,33.9794284 C15.2689212,33.9794284 13.3797556,34.4017686 15.069928,35.7020117 C15.069928,35.7020117 16.3625373,36.3843175 18.0192618,35.9619773 C18.0192618,35.9619773 18.3909981,35.5068299 18.7555368,35.6044208 L19.6023166,35.6044208 C19.9672786,35.5068299 20.3385916,35.9619773 20.3385916,35.9619773 C21.9957395,36.3843175 23.2879254,35.7020117 23.2879254,35.7020117 C24.9780978,34.4017686 23.0893556,33.9794284 23.0893556,33.9794284" id="Fill-33" sketch:type="MSShapeGroup"></path>
                <path d="M19.6023166,36.9449461 L18.7555368,36.9449461 C18.7555368,36.9449461 15.7990053,37.1725198 15.2689212,36.0998504 C15.2689212,36.0998504 13.3797556,36.5221906 15.069928,37.8224338 C15.069928,37.8224338 16.3625373,38.5051548 18.0192618,38.0823993 C18.0192618,38.0823993 18.3909981,37.6276672 18.7555368,37.7252581 L19.6023166,37.7252581 C19.9672786,37.6276672 20.3385916,38.0823993 20.3385916,38.0823993 C21.9957395,38.5051548 23.2879254,37.8224338 23.2879254,37.8224338 C24.9780978,36.5221906 23.0893556,36.0998504 23.0893556,36.0998504 C22.5588481,37.1725198 19.6023166,36.9449461 19.6023166,36.9449461 Z" id="Fill-34" sketch:type="MSShapeGroup"></path>
                <path d="M22.9373586,38.6359682 C22.4275972,39.6666943 19.5862278,39.4482568 19.5862278,39.4482568 L18.772049,39.4482568 C18.772049,39.4482568 15.9302562,39.6666943 15.4209182,38.6359682 C15.4209182,38.6359682 13.604999,39.0416972 15.229546,40.2912761 C15.229546,40.2912761 16.4717718,40.9478345 18.0641412,40.5412749 C18.0641412,40.5412749 18.4214822,40.1039846 18.772049,40.197838 L19.5862278,40.197838 C19.9363712,40.1039846 20.2937122,40.5412749 20.2937122,40.5412749 C21.8860815,40.9478345 23.1283074,40.2912761 23.1283074,40.2912761 C24.7528544,39.0416972 22.9373586,38.6359682 22.9373586,38.6359682" id="Fill-35" sketch:type="MSShapeGroup"></path>
                <path d="M22.5990701,41.1467539 C22.1354582,42.0848724 19.5493928,41.8859531 19.5493928,41.8859531 L18.8088839,41.8859531 C18.8088839,41.8859531 16.2228186,42.0848724 15.7592067,41.1467539 C15.7592067,41.1467539 14.1071394,41.5163535 15.5851934,42.6533914 C15.5851934,42.6533914 16.7156444,43.2505647 18.1644846,42.8805498 C18.1644846,42.8805498 18.489648,42.4827111 18.8088839,42.5682589 L19.5493928,42.5682589 C19.8686288,42.4827111 20.1933688,42.8805498 20.1933688,42.8805498 C21.6426324,43.2505647 22.7730833,42.6533914 22.7730833,42.6533914 C24.2511374,41.5163535 22.5990701,41.1467539 22.5990701,41.1467539" id="Fill-36" sketch:type="MSShapeGroup"></path>
                <path d="M22.343766,43.5707459 C21.9144487,44.4386821 19.5218725,44.2542976 19.5218725,44.2542976 L18.8364043,44.2542976 C18.8364043,44.2542976 16.4438281,44.4386821 16.0145108,43.5707459 C16.0145108,43.5707459 14.4856499,43.9125217 15.8531992,44.9644271 C15.8531992,44.9644271 16.8993956,45.5171654 18.2402713,45.1749743 C18.2402713,45.1749743 18.5413015,44.8070359 18.8364043,44.8859391 L19.5218725,44.8859391 C19.8169752,44.8070359 20.117582,45.1749743 20.117582,45.1749743 C21.4588812,45.5171654 22.5046542,44.9644271 22.5046542,44.9644271 C23.8726268,43.9125217 22.343766,43.5707459 22.343766,43.5707459" id="Fill-37" sketch:type="MSShapeGroup"></path>
                <path d="M22.1655189,46.028791 C21.7607581,46.8485546 19.5023966,46.6745521 19.5023966,46.6745521 L18.8554568,46.6745521 C18.8554568,46.6745521 16.5970952,46.8485546 16.1923345,46.028791 C16.1923345,46.028791 14.7489984,46.3514639 16.0399142,47.3448148 C16.0399142,47.3448148 17.0276827,47.866407 18.2931951,47.5433188 C18.2931951,47.5433188 18.5768663,47.1957291 18.8554568,47.2704796 L19.5023966,47.2704796 C19.7809871,47.1957291 20.0650817,47.5433188 20.0650817,47.5433188 C21.330594,47.866407 22.3179392,47.3448148 22.3179392,47.3448148 C23.6088549,46.3514639 22.1655189,46.028791 22.1655189,46.028791" id="Fill-38" sketch:type="MSShapeGroup"></path>
                <path d="M21.5257768,48.6350912 C21.207811,49.2791912 19.4329606,49.1425639 19.4329606,49.1425639 L18.9248928,49.1425639 C18.9248928,49.1425639 17.1504658,49.2791912 16.8320766,48.6350912 C16.8320766,48.6350912 15.6982385,48.8888275 16.7126807,49.6691395 C16.7126807,49.6691395 17.4887543,50.0790213 18.4828737,49.825285 C18.4828737,49.825285 18.7060002,49.5520304 18.9248928,49.610585 L19.4329606,49.610585 C19.6518532,49.5520304 19.8749796,49.825285 19.8749796,49.825285 C20.8695225,50.0790213 21.6451727,49.6691395 21.6451727,49.6691395 C22.6596148,48.8888275 21.5257768,48.6350912 21.5257768,48.6350912" id="Fill-39" sketch:type="MSShapeGroup"></path>
                <path d="M21.5257768,50.950695 C21.207811,51.5943797 19.4329606,51.4581677 19.4329606,51.4581677 L18.9248928,51.4581677 C18.9248928,51.4581677 17.1504658,51.5943797 16.8320766,50.950695 C16.8320766,50.950695 15.6982385,51.2040161 16.7126807,51.9847434 C16.7126807,51.9847434 17.4887543,52.3946252 18.4828737,52.1404735 C18.4828737,52.1404735 18.7060002,51.8676343 18.9248928,51.9261888 L19.4329606,51.9261888 C19.6518532,51.8676343 19.8749796,52.1404735 19.8749796,52.1404735 C20.8695225,52.3946252 21.6451727,51.9847434 21.6451727,51.9847434 C22.6596148,51.2040161 21.5257768,50.950695 21.5257768,50.950695" id="Fill-40" sketch:type="MSShapeGroup"></path>
                <path d="M19.3863877,53.4315805 L18.9714657,53.4315805 C18.9714657,53.4315805 17.5230489,53.5428757 17.2630875,53.0175459 C17.2630875,53.0175459 16.3371339,53.2243555 17.1652845,53.8613958 C17.1652845,53.8613958 17.7990991,54.1961118 18.6107375,53.9888869 C18.6107375,53.9888869 18.7927951,53.7658813 18.9714657,53.8136385 L19.3863877,53.8136385 C19.5650583,53.7658813 19.7475393,53.9888869 19.7475393,53.9888869 C20.5591777,54.1961118 21.1925689,53.8613958 21.1925689,53.8613958 C22.0207195,53.2243555 21.0951893,53.0175459 21.0951893,53.0175459 C20.8352279,53.5428757 19.3863877,53.4315805 19.3863877,53.4315805" id="Fill-41" sketch:type="MSShapeGroup"></path>
                <path d="M20.5524034,54.9909586 C20.3661119,55.367618 19.3275365,55.2878842 19.3275365,55.2878842 L19.0303168,55.2878842 C19.0303168,55.2878842 17.9917415,55.367618 17.8054499,54.9909586 C17.8054499,54.9909586 17.141998,55.5544942 17.7355906,56.0113027 C17.7355906,56.0113027 18.1898879,56.2513348 18.7716256,56.1026644 C18.7716256,56.1026644 18.9020297,55.9427815 19.0303168,55.9772497 L19.3275365,55.9772497 C19.4558237,55.9427815 19.5862278,56.1026644 19.5862278,56.1026644 C20.1683888,56.2513348 20.6222628,56.0113027 20.6222628,56.0113027 C21.2158554,55.5544942 20.5524034,54.9909586 20.5524034,54.9909586" id="Fill-42" sketch:type="MSShapeGroup"></path>
                <path d="M20.5524034,56.6877946 C20.3661119,57.064454 19.3275365,56.9847201 19.3275365,56.9847201 L19.0303168,56.9847201 C19.0303168,56.9847201 17.9917415,57.064454 17.8054499,56.6877946 C17.8054499,56.6877946 17.141998,57.2513302 17.7355906,57.7081387 C17.7355906,57.7081387 18.1898879,57.9481708 18.7716256,57.7995004 C18.7716256,57.7995004 18.9020297,57.6396174 19.0303168,57.6740857 L19.3275365,57.6740857 C19.4558237,57.6396174 19.5862278,57.7995004 19.5862278,57.7995004 C20.1683888,57.9481708 20.6222628,57.7081387 20.6222628,57.7081387 C21.2158554,57.2513302 20.5524034,56.6877946 20.5524034,56.6877946" id="Fill-43" sketch:type="MSShapeGroup"></path>
                <path d="M25.0826751,6.52897451 L25.6915097,9.51608687 C26.4023813,11.8063586 24.6762208,15.3906443 24.6762208,15.3906443 C25.386669,21.6634557 31.3327564,19.7099764 31.3327564,19.7099764 C34.2334004,19.4491803 34.7262262,20.6680284 34.7262262,20.6680284 C35.8431287,21.364869 37.5684425,24.2523141 37.5684425,24.2523141 C38.0765103,8.22165767 25.0826751,6.52897451 25.0826751,6.52897451" id="Fill-44" sketch:type="MSShapeGroup"></path>
                <path d="M24.191016,21.5542369 C32.2049395,22.7660253 35.1339507,24.8436735 35.1339507,24.8436735 C31.6740086,21.3461814 24.191016,20.1692766 24.191016,20.1692766 C24.7918062,20.7232607 24.191016,21.5542369 24.191016,21.5542369" id="Fill-45" sketch:type="MSShapeGroup"></path>
                <path d="M24.191016,23.8914354 C32.2049395,25.1032238 35.1339507,27.1808719 35.1339507,27.1808719 C31.6740086,23.6833798 24.191016,22.506475 24.191016,22.506475 C24.7918062,23.0604592 24.191016,23.8914354 24.191016,23.8914354" id="Fill-46" sketch:type="MSShapeGroup"></path>
                <path d="M24.191016,26.0035518 C32.2049395,27.2153402 35.1339507,29.2929883 35.1339507,29.2929883 C31.6740086,25.7954963 24.191016,24.6185915 24.191016,24.6185915 C24.7918062,25.1725756 24.191016,26.0035518 24.191016,26.0035518" id="Fill-47" sketch:type="MSShapeGroup"></path>
                <path d="M24.191016,28.3407502 C32.2049395,29.5525386 35.1339507,31.6301868 35.1339507,31.6301868 C31.6740086,28.1326947 24.191016,26.9557899 24.191016,26.9557899 C24.7918062,27.509774 24.191016,28.3407502 24.191016,28.3407502" id="Fill-48" sketch:type="MSShapeGroup"></path>
                <path d="M24.191016,30.8685624 C32.2049395,32.0803508 35.1339507,34.157999 35.1339507,34.157999 C31.6740086,30.6605069 24.191016,29.4836021 24.191016,29.4836021 C24.7918062,30.0375862 24.191016,30.8685624 24.191016,30.8685624" id="Fill-49" sketch:type="MSShapeGroup"></path>
                <path d="M24.191016,33.2053456 C32.2049395,34.417134 35.1339507,36.4947821 35.1339507,36.4947821 C31.6740086,32.9977053 24.191016,31.8208005 24.191016,31.8208005 C24.7918062,32.3747846 24.191016,33.2053456 24.191016,33.2053456" id="Fill-50" sketch:type="MSShapeGroup"></path>
                <path d="M24.191016,35.3523456 C32.2049395,36.564134 35.1339507,38.6417821 35.1339507,38.6417821 C31.6740086,35.1447053 24.191016,33.9673852 24.191016,33.9673852 C24.7918062,34.5213694 24.191016,35.3523456 24.191016,35.3523456" id="Fill-51" sketch:type="MSShapeGroup"></path>
                <path d="M24.191016,37.8797425 C32.2049395,39.0915308 34.4633011,40.9457581 34.4633011,40.9457581 C31.0033591,37.4482661 24.191016,36.4947821 24.191016,36.4947821 C24.7918062,37.0487663 24.191016,37.8797425 24.191016,37.8797425" id="Fill-52" sketch:type="MSShapeGroup"></path>
                <path d="M23.9081916,40.218602 C31.9221151,41.4303904 34.4633011,43.8884355 34.4633011,43.8884355 C31.0033591,40.3913587 23.9081916,39.0225943 23.9081916,39.0225943 C24.4729937,39.595266 23.9081916,40.218602 23.9081916,40.218602" id="Fill-53" sketch:type="MSShapeGroup"></path>
                <path d="M23.4843783,41.1347107 C24.0491804,41.7073825 23.4843783,42.5038904 23.4843783,42.5038904 C30.0507319,43.3003983 33.0157312,46.0009672 33.0157312,46.0009672 C29.6624834,42.0537264 23.4843783,41.1347107 23.4843783,41.1347107" id="Fill-54" sketch:type="MSShapeGroup"></path>
                <path d="M23.237542,43.567839 C23.8023441,44.1405107 23.237542,44.9370186 23.237542,44.9370186 C29.4126833,46.2729759 31.7802795,48.4336801 31.7802795,48.4336801 C28.4270317,44.4868546 23.237542,43.567839 23.237542,43.567839" id="Fill-55" sketch:type="MSShapeGroup"></path>
                <path d="M22.8492935,46.0009672 C23.4140956,46.5736389 22.8492935,47.3701469 22.8492935,47.3701469 C29.0244348,48.7061041 31.392031,50.8668084 31.392031,50.8668084 C28.0387832,46.9199828 22.8492935,46.0009672 22.8492935,46.0009672" id="Fill-56" sketch:type="MSShapeGroup"></path>
                <path id="Fill-57" sketch:type="MSShapeGroup" d="M29.3271586,53.0653031 C29.3271586,53.0653031 29.2856664,52.9581608 29.1442541,52.777929 C29.2060691,52.8721977 29.267884,52.9668817 29.3271586,53.0653031"></path>
                <path d="M22.4254802,48.4336801 C22.9902823,49.0063519 22.4254802,49.8028598 22.4254802,49.8028598 C27.1496645,50.8252803 28.683606,52.191553 29.1442541,52.777929 C26.7207705,49.0860857 22.4254802,48.4336801 22.4254802,48.4336801" id="Fill-58" sketch:type="MSShapeGroup"></path>
                <path id="Fill-59" sketch:type="MSShapeGroup" d="M28.1268483,54.1226072 C28.2784219,54.2916263 28.4299954,54.4639677 28.5781819,54.6495981 C28.5781819,54.6495981 28.5328792,54.4469412 28.1268483,54.1226072"></path>
                <path d="M22.1079378,50.5806801 C22.6727399,51.1533519 22.1079378,51.9498598 22.1079378,51.9498598 C25.9061684,52.7716998 27.4786384,53.6035066 28.1268483,54.1226072 C25.3447534,51.0142329 22.1079378,50.5806801 22.1079378,50.5806801" id="Fill-60" sketch:type="MSShapeGroup"></path>
                <path d="M21.4372883,52.6151391 C22.0020904,53.1878109 21.4372883,53.9843188 21.4372883,53.9843188 C24.8963835,54.9020886 26.0369959,55.5461886 26.4061918,55.9004228 C25.0276344,53.3132256 21.4372883,52.6151391 21.4372883,52.6151391" id="Fill-61" sketch:type="MSShapeGroup"></path>
                <path id="Fill-62" sketch:type="MSShapeGroup" d="M26.5704671,56.2226805 C26.5704671,56.2226805 26.6280481,56.1142923 26.4061918,55.9004228 C26.4625027,56.0067346 26.5222007,56.1101395 26.5704671,56.2226805"></path>
                <path d="M21.2247466,54.4502635 C21.7895487,55.0229352 21.2247466,55.8194432 21.2247466,55.8194432 C24.0936363,56.7077281 25.1406795,57.3372932 25.5090287,57.7172749 C24.4835784,55.4049933 21.2247466,54.4502635 21.2247466,54.4502635" id="Fill-63" sketch:type="MSShapeGroup"></path>
                <path id="Fill-64" sketch:type="MSShapeGroup" d="M25.673304,58.1553958 C25.673304,58.1553958 25.7935467,58.0104629 25.5090287,57.7172749 C25.5716904,57.8588855 25.6284246,58.0038184 25.673304,58.1553958"></path>
                <path d="M20.8690991,56.3028296 C21.4339012,56.8755014 20.8690991,57.6720093 20.8690991,57.6720093 C23.9708533,59.1259062 24.427691,59.8023981 24.4950099,59.9660186 C23.8705099,57.5191861 20.8690991,56.3028296 20.8690991,56.3028296" id="Fill-65" sketch:type="MSShapeGroup"></path>
            </g>
        </g>
    </g>
</svg>