<?xml version="1.0" encoding="UTF-8" standalone="no"?>
<svg width="44px" height="46px" viewBox="0 0 44 46" version="1.1" xmlns="http://www.w3.org/2000/svg" xmlns:xlink="http://www.w3.org/1999/xlink" xmlns:sketch="http://www.bohemiancoding.com/sketch/ns">
    <!-- Generator: Sketch 3.3.2 (12043) - http://www.bohemiancoding.com/sketch -->
    <title>Wurm2</title>
    <desc>Created with Sketch.</desc>
    <defs></defs>
    <g id="Page-1" stroke="none" stroke-width="1" fill="none" fill-rule="evenodd" sketch:type="MSPage">
        <g id="Startscreen-2-Copy-16" sketch:type="MSArtboardGroup" transform="translate(-47.000000, -957.000000)" fill="#4A4A4A">
            <g id="Wurm2" sketch:type="MSLayerGroup" transform="translate(47.000000, 957.000000)">
                <path d="M44.1994655,1.79637379 C44.1019267,1.77297415 44.0039306,1.7696207 43.9121832,1.7696207 L43.7971179,1.77021687 L43.7420237,1.7696207 C43.7121525,1.7696207 43.6817478,1.77446457 43.6235293,1.7851211 C43.5452697,1.77930845 43.4671624,1.77170729 43.3888266,1.76418066 C43.2629406,1.75173562 43.1366735,1.73921607 43.0107875,1.73377603 C42.7760086,1.72460993 42.5397818,1.71700877 42.3062983,1.73586262 C42.1881087,1.74532681 42.0780727,1.77692377 41.9713897,1.80762648 C41.9220107,1.82193454 41.8724792,1.8362426 41.8224906,1.84779338 C41.7446882,1.86575298 41.6667333,1.88244571 41.5887023,1.89921297 C41.4786663,1.9229107 41.3685542,1.94660842 41.2595088,1.97336151 C41.1506159,1.99981652 41.0430946,2.02992306 40.9351923,2.05973152 L40.5264438,2.16801074 C40.3426441,2.21481002 40.1586158,2.26198191 39.9776356,2.31824537 C39.8837545,2.34775575 39.8010752,2.39090349 39.7208343,2.43315698 C39.6767132,2.45625854 39.6328969,2.47936009 39.5874804,2.4994808 C39.5091446,2.53383505 39.4298181,2.5661027 39.350263,2.59829584 C39.2244532,2.64934282 39.0984148,2.70046433 38.9766437,2.75941056 C38.8370413,2.82662863 38.702011,2.90293828 38.5672093,2.97894985 L38.33304,3.10965994 C38.2885379,3.13455001 38.2444169,3.15981267 38.1977811,3.17933721 C37.7466642,3.36482035 37.3888187,3.66759976 37.127369,3.9105387 C37.0148184,4.01546447 36.8715583,4.09602183 36.7194587,4.18142306 L36.6274827,4.23373691 C36.3622228,4.38605813 36.1352927,4.59829435 35.9127061,4.90114829 C35.8068613,5.04527218 35.6762507,5.19058842 35.5134829,5.34656118 C35.48826,5.37085507 35.4621988,5.39403115 35.4366711,5.41743078 C35.3138331,5.52809469 35.1751452,5.65336473 35.1142596,5.85650938 C35.1096113,5.86955058 35.0787494,5.90122206 35.0587082,5.92216251 C35.0293704,5.95226905 35.0004897,5.98297176 34.9774767,6.01576106 C34.9153719,6.10391958 34.883367,6.18149609 34.8761278,6.26019042 C34.8715556,6.31161001 34.875823,6.36235891 34.8805475,6.40766777 C34.8814619,6.41802621 34.882986,6.42771396 34.8840528,6.43717814 C34.8606587,6.45819311 34.8413796,6.47369351 34.8399317,6.47518393 C34.8209574,6.48338125 34.8025165,6.49284544 34.7850662,6.50283127 C34.5614889,6.63205094 34.4086274,6.81842833 34.334254,7.04772989 C34.3277768,7.05711956 34.3177943,7.06568949 34.3084977,7.07448298 C34.2764166,7.10607995 34.2326003,7.14900413 34.2114923,7.21279423 C34.2034149,7.23768429 34.1977759,7.26235079 34.1977759,7.26995195 C34.1906129,7.29029622 34.1449678,7.38091393 34.0495626,7.54694705 C33.9634542,7.6962129 33.8834419,7.8495029 33.8092209,8.00547566 C33.720293,8.1927473 33.6479009,8.32256313 33.6223732,8.35393653 C33.5458662,8.44880195 33.5207195,8.52935931 33.5458662,8.60112317 L33.5506669,8.61207778 C33.548076,8.62146745 33.5444183,8.63301823 33.539389,8.64673012 C33.5263584,8.68138245 33.50586,8.72154935 33.4869619,8.75895896 C33.4651681,8.80218123 33.4452793,8.8422736 33.4340776,8.87208206 C33.415789,8.92074437 33.4061114,8.97395247 33.4055018,9.03990368 C33.3825649,9.37316225 33.2702429,9.80001937 33.161731,10.212941 C33.0796612,10.5254827 32.9945434,10.8490535 32.9456978,11.1402822 C32.3633606,14.5866616 30.5172102,18.8339198 27.0827014,20.4182393 C25.7647084,21.0263319 24.2459226,21.2987067 22.762647,21.1926631 C22.4844328,21.1732131 22.2161249,21.1461619 21.953075,21.1197069 C21.4736108,21.0713427 21.020665,21.0254376 20.5491258,21.0254376 C20.1734491,21.0254376 19.8268053,21.0555442 19.4894582,21.1166515 C18.6456714,21.2699415 17.8024942,21.4268085 16.959317,21.5833775 L15.6724906,21.8238572 C12.6968714,22.8172241 10.1389926,25.079388 8.84599384,27.8497861 C8.69237023,28.0571784 8.65076384,28.335664 8.72475616,28.5791245 C8.59574586,28.6418713 8.49157747,28.763937 8.44311288,28.9218473 C8.39960143,29.0623197 8.40889809,29.2005564 8.46368747,29.313754 C8.35761402,29.389542 8.2731058,29.4991626 8.22342197,29.6308415 C8.1549924,29.812524 8.16428907,30.0046395 8.24574921,30.1596435 L8.17549079,30.3782886 C7.43366249,32.6869537 6.59292376,35.3033166 6.52678026,37.7295015 C6.52152231,37.7336747 6.50186214,37.7428408 6.48791714,37.7495477 L6.44844441,37.7687742 C6.36637465,37.8107296 6.32598749,37.8894239 6.2843049,37.9712481 C6.27683708,37.9859288 6.25169036,38.0092539 6.22928692,38.0298962 C6.20848372,38.0491227 6.18760432,38.0687963 6.15811407,38.1007659 C6.13014787,38.1297546 6.08351213,38.1775972 6.07474888,38.249361 C6.04739229,38.4715086 6.02468404,38.6943268 6.00296642,38.9166979 C6.00136617,38.9336142 6.00045175,38.9496362 6.00014694,38.9661054 C5.98643054,38.9889089 5.95160614,39.0357827 5.90161751,39.0849666 C5.85185748,39.1336289 5.79470584,39.1925752 5.74837491,39.2631467 C5.69175668,39.3485479 5.64420652,39.4398363 5.59665635,39.5311247 C5.5528401,39.614961 5.50955725,39.699468 5.45705395,39.7779388 C5.40234077,39.859763 5.32270949,39.9430031 5.20642495,40.0404768 C5.14271992,40.0937594 5.08023413,40.1491286 5.01744352,40.2047214 C4.83714915,40.3643457 4.66676106,40.5151765 4.47305509,40.6158545 C4.30175258,40.7043856 4.16778913,40.8216819 4.03809301,40.9350286 C3.93643929,41.0238578 3.84034833,41.1076941 3.73244603,41.1731982 C3.68672472,41.2008455 3.64016518,41.2273005 3.59314843,41.2533829 C3.54125474,41.2828933 3.48920865,41.311733 3.43830559,41.3430319 C3.36583731,41.3874465 3.29405484,41.4328298 3.22219618,41.4781387 C3.11368427,41.5467727 3.00547716,41.6153321 2.89452677,41.6794203 C2.72322426,41.7785334 2.54933086,41.8742931 2.37597089,41.9697547 L2.1048435,42.1196913 C2.0734482,42.1369802 2.04266252,42.1557595 2.01218164,42.1746879 C1.97148967,42.199876 1.93041669,42.2255113 1.88751486,42.2451103 C1.80293043,42.2843085 1.71712677,42.3212709 1.63132311,42.3579354 C1.50818037,42.4109199 1.38534245,42.4637554 1.26570501,42.5228506 L1.07916205,42.6148097 C0.752711882,42.7754028 0.415059988,42.9414359 0.0938677665,43.1281859 C-0.146778743,43.267615 -0.323034403,43.480969 -0.415696263,43.7452955 C-0.453949762,43.8532021 -0.449606237,43.958426 -0.403580115,44.041219 C-0.364717,44.1110453 -0.296973255,44.1611235 -0.213303252,44.1816914 C-0.11568825,44.204942 -0.0177684386,44.2084444 0.0739789955,44.2084444 L0.189044299,44.2076992 L0.244062279,44.2084444 C0.273933536,44.2084444 0.304414411,44.203526 0.362480478,44.1928695 C0.440816327,44.1985331 0.518847368,44.2062833 0.597259419,44.21381 C0.723145433,44.2263295 0.849412458,44.2387 0.975298473,44.2442891 C1.10339435,44.2493566 1.23171883,44.2539769 1.35989091,44.2539769 C1.46687879,44.2539769 1.57379046,44.2506979 1.6797877,44.2420535 C1.79790109,44.2325893 1.90801325,44.2010669 2.01462011,44.1702896 C2.06407533,44.1560561 2.11345435,44.1418225 2.16359539,44.1301227 C2.24132162,44.1123867 2.31935266,44.0954704 2.3973837,44.0789267 C2.50741966,44.0551544 2.61753182,44.0313077 2.72665335,44.0047036 C2.83547008,43.9781741 2.94337238,43.9482166 3.05127467,43.9184081 L3.4597946,43.8100544 C3.64359428,43.7632551 3.82762256,43.7162323 4.00852656,43.6598943 C4.10217905,43.6303094 4.18508703,43.5872362 4.26502312,43.5453553 C4.30914419,43.5220302 4.35334146,43.4987796 4.39898657,43.4786589 C4.47732242,43.4443046 4.5569537,43.4118879 4.63650879,43.3798438 C4.76208999,43.3287223 4.88805221,43.2773773 5.0095947,43.2187291 C5.14919711,43.1516601 5.28415118,43.0752014 5.41910526,42.9992643 L5.65319838,42.8685542 C5.69762425,42.8435151 5.74182152,42.818327 5.78845726,42.7988025 C6.23957421,42.6133938 6.59741969,42.3104654 6.85886939,42.067601 C6.97142002,41.9627497 7.11475634,41.8821178 7.2667797,41.7967166 L7.35883195,41.7444773 C7.62401556,41.5920815 7.85094567,41.3798453 8.07360847,41.0771404 C8.1793009,40.9328675 8.30991145,40.7876258 8.47283173,40.6315785 C8.49805465,40.6072846 8.5241158,40.5841085 8.54964353,40.5607089 C8.67240526,40.4501195 8.81109324,40.3247749 8.87205499,40.1217048 C8.87670332,40.1086636 8.90748901,40.0767686 8.9279874,40.055381 C8.95694423,40.025498 8.98582486,39.9952424 9.00883792,39.9623786 C9.03063174,39.9316759 9.04960609,39.9011967 9.06515134,39.8698979 C9.07848672,39.8435919 9.16337596,39.7163843 9.27188787,39.577924 C10.6259245,37.8470959 11.1513386,35.7111708 11.6593786,33.6455192 C12.3197468,30.9611184 12.9434617,28.4253129 15.2195448,26.6432887 C16.2268616,25.8543334 17.4412196,25.2829797 18.7314751,24.9907078 C19.6347758,24.7862218 20.36525,24.6867361 20.9644278,24.6867361 C21.4435109,24.6867361 21.8296274,24.7518675 22.1122613,24.8798203 C22.1278066,24.8869744 22.144571,24.8937558 22.1619451,24.899643 C22.171318,24.9032945 22.1877777,24.9133549 22.2033991,24.9233407 C22.2312891,24.9409277 22.2595602,24.9576949 22.2897362,24.97014 C22.3205981,24.9830321 22.3532126,24.9917511 22.3883418,24.9993523 L22.4406165,25.005463 C22.4990636,25.005463 22.5528624,24.9836283 22.5922589,24.943685 C22.6087948,24.9266941 22.6219016,24.9079148 22.6315792,24.8869744 C22.6433144,24.8850368 22.65825,24.883919 22.6760051,24.883919 C22.7519025,24.8842171 22.9206903,24.9138765 23.0441379,24.9357857 L23.2050769,24.9627624 C23.2597901,24.9714068 23.3139698,24.9801258 23.3676924,24.9907078 L23.4221769,24.9962224 C23.5085902,24.9959988 23.5873071,24.9579185 23.6395056,24.9287062 C23.862397,24.8032871 24.2578863,24.8010515 24.6402689,24.7986668 C24.9552887,24.7971764 25.2807483,24.7949408 25.5412836,24.7251144 C26.9261059,24.6168352 28.2953068,24.2051804 29.479565,23.5450721 C30.9973602,23.0033034 32.3022465,22.0619523 33.7225029,20.478825 C33.7687576,20.4283742 33.8387112,20.3520646 33.8316244,20.2520572 C33.8272809,20.1872983 33.8392446,20.1529441 33.9223812,20.1188879 C34.0097089,20.0832668 34.2419732,19.9884759 34.2175123,19.705072 C34.2223892,19.6868143 34.2532511,19.6494047 34.2702442,19.6403131 C34.4564823,19.5478324 34.5398475,19.4095211 34.5252929,19.2167349 C34.5199588,19.1471322 34.5420574,19.1346126 34.5784058,19.1224657 C34.6706867,19.0913903 34.8758992,18.9887002 34.7895621,18.6940436 C34.779351,18.6590932 34.7765315,18.6417298 34.7720356,18.6402393 C34.7773697,18.6368859 34.7879618,18.6311477 34.8065552,18.6238447 C35.1214988,18.5052815 35.1324719,18.3578042 35.0391243,18.0905714 C35.0341711,18.0765614 35.0295228,18.0623278 35.0247982,18.0473491 C35.127976,18.0385556 35.2241432,17.9868379 35.2860193,17.9056844 C35.3542203,17.8169297 35.3745663,17.7041047 35.342028,17.5958255 C35.3261017,17.5432135 35.3034696,17.4927627 35.2791611,17.44261 C35.3510198,17.4280039 35.4215068,17.3848561 35.4790395,17.3185323 C35.5254466,17.264728 35.5761211,17.1990749 35.6006582,17.1172507 C35.6245095,17.0363952 35.6174989,16.9551672 35.6071354,16.8861606 C35.5965433,16.8143967 35.5558513,16.7615612 35.517293,16.7205001 C35.5835127,16.7019443 35.6469129,16.653282 35.6998734,16.5791335 C35.7467378,16.5131823 35.7840768,16.4563226 35.8126527,16.3918618 C35.8570785,16.2933449 35.8343703,16.142216 35.7625878,16.0546537 C35.7308877,16.0163498 35.7088653,15.978344 35.6944631,15.9372828 C35.8369612,15.9348237 35.9671907,15.8187197 36.012531,15.6532828 C36.0492605,15.5198154 36.0244185,15.3942473 35.9367098,15.2695734 C35.9338903,15.2656238 35.9287086,15.2528806 35.9255843,15.2118195 C36.0256378,15.220613 36.1170804,15.1701622 36.1556387,15.0859533 C36.1650116,15.0662052 36.1746131,15.0455628 36.1867292,15.0264109 C36.2740569,14.8856404 36.2719995,14.750012 36.180252,14.6122969 C36.1509904,14.5681804 36.1410079,14.5432903 36.1360547,14.5384464 C36.1460372,14.5314414 36.1656212,14.5223499 36.1767467,14.5171334 C36.2088278,14.5019311 36.2768764,14.4703341 36.3005753,14.3955149 C36.3546026,14.3548263 36.3900366,14.306164 36.4055819,14.2499005 C36.4370534,14.1373736 36.3786063,14.041912 36.3260268,13.9559146 L36.2998895,13.9148535 C36.2852586,13.89205 36.2629314,13.8591862 36.2557684,13.8677561 C36.2557684,13.8677561 36.2613311,13.860453 36.2816009,13.8470392 C36.3450774,13.8050838 36.3598606,13.740325 36.3629849,13.6935257 C36.4099254,13.6695299 36.4469597,13.629363 36.4661626,13.5807007 C36.4907759,13.5189226 36.4857466,13.4478295 36.4525224,13.3858279 C36.4331671,13.3502068 36.4132783,13.3168213 36.3887412,13.2867147 C36.3687762,13.2620482 36.3650423,13.241704 36.3681666,13.2301532 C36.3737294,13.210107 36.4281377,13.171207 36.4539703,13.1523531 C36.491919,13.1253019 36.5276578,13.0995176 36.5534903,13.0630023 C36.577113,13.0301384 36.5992878,12.997051 36.6194052,12.9621006 C36.6527818,12.903378 36.6662696,12.8310179 36.6561347,12.7687183 C36.6426469,12.686894 36.6274827,12.6054424 36.6116326,12.5218297 C36.6088893,12.5078197 36.6068319,12.4953747 36.605384,12.484122 C36.7104668,12.4354597 36.7841544,12.3187596 36.8155497,12.2616019 C36.8815408,12.1396853 36.8743015,12.0150114 36.7941368,11.8916044 C36.7692187,11.8533005 36.7521494,11.8049363 36.7359184,11.7453194 C36.8329238,11.7137224 36.9190322,11.6222104 36.9710021,11.4908296 C37.0269345,11.3509535 37.0083412,11.2220319 36.9137743,11.0977306 C36.8630998,11.0308106 36.8802453,10.9776025 37.0095604,10.8079924 C37.1170817,10.6666258 37.1307981,10.5136339 37.0500238,10.3531153 C37.0257153,10.3053473 37.0219814,10.2582499 37.0785996,10.1706875 C37.223079,9.94690055 37.3643578,9.68205239 37.2246792,9.36034461 C37.2287179,9.35035877 37.2361857,9.33418769 37.2492163,9.31078805 C37.2731438,9.26793839 37.299586,9.22657915 37.3261043,9.18492183 C37.4436081,9.00033295 37.5902973,8.77021165 37.4786611,8.45372035 C37.459763,8.39991608 37.4587723,8.33239992 37.4581627,8.24848911 C37.4634207,8.24394332 37.4830046,8.23477722 37.4970258,8.22844292 L37.5368034,8.20899291 C37.6188731,8.1670375 37.6593365,8.08826865 37.7010191,8.00651895 C37.7084107,7.99191281 37.7335574,7.96851317 37.7559609,7.94779629 C37.7768403,7.92864436 37.7976435,7.90889625 37.8272099,7.87692668 C37.8551761,7.84801248 37.9018118,7.80002086 37.9104989,7.72825699 C37.9378555,7.50633302 37.9605637,7.28344028 37.9823576,7.06084561 C37.9838816,7.04415288 37.984796,7.02805631 37.9851008,7.01158714 C37.9988172,6.98878366 38.0336416,6.94198439 38.0837065,6.89272591 C38.1333903,6.8440636 38.1906181,6.78511737 38.2369491,6.71454585 C38.2935673,6.62914462 38.3411175,6.53785621 38.3886676,6.44664233 C38.4324839,6.36273152 38.4758429,6.27822454 38.52827,6.19975377 C38.5829832,6.11800408 38.6629955,6.03439135 38.7792038,5.93706673 C38.8419944,5.88415672 38.9042516,5.8294582 38.9663564,5.77438707 C39.1472604,5.61416661 39.3182581,5.46273964 39.5125737,5.36243418 C39.6838762,5.27367949 39.8182969,5.15630869 39.9478406,5.04258942 C40.0495705,4.95383474 40.1452805,4.87022201 40.2531828,4.80486697 C40.2989041,4.7771451 40.345616,4.75069009 40.3924804,4.72460769 C40.4444502,4.69509732 40.4962677,4.66625764 40.547247,4.63488423 C40.6197153,4.59046963 40.6916501,4.54516077 40.7633564,4.49985192 C40.8718683,4.43114342 40.9800754,4.36273301 41.091102,4.2985703 C41.2624045,4.19945718 41.4361455,4.10369751 41.6096579,4.00823592 L41.8808615,3.85829937 C41.9121806,3.84101047 41.9430425,3.82215662 41.9735233,3.80330277 C42.0142153,3.7780401 42.0552121,3.75247935 42.0982663,3.73273124 C42.1826984,3.69353312 42.268502,3.65671967 42.3543819,3.61990623 C42.4774484,3.56699621 42.6002863,3.5140862 42.72,3.45513997 L42.9065429,3.36303184 C43.2329169,3.20251329 43.570645,3.03648018 43.8918372,2.84980471 C44.1324075,2.7102266 44.3087394,2.49679804 44.4014013,2.23254606 C44.4396547,2.12463944 44.4353112,2.01941558 44.3892851,1.93669711 C44.3508792,1.86664723 44.2834403,1.81671806 44.1994655,1.79637379" id="Wurm" sketch:type="MSShapeGroup" transform="translate(22.000000, 23.000000) rotate(-270.000000) translate(-22.000000, -23.000000) "></path>
            </g>
        </g>
    </g>
</svg>